<?xml version="1.0" encoding="UTF-8"?>
<svg id="Capa_2" data-name="Capa 2" xmlns="http://www.w3.org/2000/svg" viewBox="0 0 70.62 69.64">
  <defs>
    <style>
      .cls-1 {
        fill: #6bb264;
      }
    </style>
  </defs>
  <g id="OBJECTS">
    <path class="cls-1" d="M48.23,34.82c5-1.29,9.73-3.88,13.64-7.8,7.21-7.21,9.96-17.2,8.25-26.53-9.33-1.71-19.32,1.04-26.53,8.25-4.5,4.5-7.26,10.07-8.29,15.89-1.03-5.82-3.79-11.39-8.29-15.89C19.81,1.53,9.82-1.22.49.49c-1.71,9.33,1.04,19.32,8.25,26.53,3.91,3.91,8.64,6.51,13.64,7.8-5,1.29-9.73,3.88-13.64,7.8C1.53,49.83-1.22,59.81.49,69.14c9.33,1.71,19.32-1.04,26.53-8.25,4.5-4.5,7.26-10.07,8.29-15.89,1.03,5.82,3.79,11.39,8.29,15.89,7.21,7.21,17.2,9.96,26.53,8.25,1.71-9.33-1.04-19.32-8.25-26.53-3.91-3.91-8.64-6.51-13.64-7.8Z"/>
  </g>
</svg>