<?xml version="1.0" encoding="UTF-8"?>
<svg id="Capa_2" data-name="Capa 2" xmlns="http://www.w3.org/2000/svg" xmlns:xlink="http://www.w3.org/1999/xlink" viewBox="0 0 219.06 189.96">
  <defs>
    <style>
      .cls-1 {
        fill: #f6eee8;
      }

      .cls-2 {
        clip-path: url(#clippath-1);
      }

      .cls-3 {
        fill: #e3aaca;
      }

      .cls-4 {
        clip-path: url(#clippath);
      }
    </style>
    <clipPath id="clippath">
      <ellipse class="cls-1" cx="159.32" cy="94.98" rx="59.74" ry="94.98"/>
    </clipPath>
    <clipPath id="clippath-1">
      <ellipse class="cls-1" cx="59.74" cy="94.98" rx="59.74" ry="94.98"/>
    </clipPath>
  </defs>
  <g id="_ÎÓÈ_1" data-name="—ÎÓÈ_1">
    <g>
      <ellipse class="cls-1" cx="159.32" cy="94.98" rx="59.74" ry="94.98"/>
      <g class="cls-4">
        <ellipse cx="146.02" cy="98.18" rx="36.4" ry="56.18"/>
        <path d="M146.02,156.6c-21.31,0-38.65-26.21-38.65-58.43s17.34-58.43,38.65-58.43,38.65,26.21,38.65,58.43-17.34,58.43-38.65,58.43ZM146.02,44.25c-18.83,0-34.15,24.19-34.15,53.93s15.32,53.93,34.15,53.93,34.15-24.19,34.15-53.93-15.32-53.93-34.15-53.93Z"/>
      </g>
    </g>
    <polygon class="cls-1" points="190.77 86.83 152.75 105.33 193.7 120.84 190.77 86.83"/>
    <path class="cls-3" d="M217.49,73.21C211.3,31.25,187.6,0,159.32,0s-51.98,31.25-58.17,73.21h116.33Z"/>
    <g>
      <ellipse class="cls-1" cx="59.74" cy="94.98" rx="59.74" ry="94.98"/>
      <g class="cls-2">
        <ellipse cx="46.44" cy="98.18" rx="36.4" ry="56.18"/>
        <path d="M46.44,156.6c-21.31,0-38.65-26.21-38.65-58.43s17.34-58.43,38.65-58.43,38.65,26.21,38.65,58.43-17.34,58.43-38.65,58.43ZM46.44,44.25c-18.83,0-34.15,24.19-34.15,53.93s15.32,53.93,34.15,53.93,34.15-24.19,34.15-53.93-15.32-53.93-34.15-53.93Z"/>
      </g>
    </g>
    <polygon class="cls-1" points="91.19 86.83 53.18 105.33 94.13 120.84 91.19 86.83"/>
    <path class="cls-3" d="M117.91,73.21C111.72,31.25,88.03,0,59.74,0S7.77,31.25,1.58,73.21h116.33Z"/>
  </g>
</svg>