<?xml version="1.0" encoding="UTF-8"?>
<svg id="Capa_2" data-name="Capa 2" xmlns="http://www.w3.org/2000/svg" viewBox="0 0 414.08 319.29">
  <defs>
    <style>
      .cls-1 {
        fill: none;
      }

      .cls-2 {
        fill: #ffce00;
      }

      .cls-3 {
        fill: #080606;
      }

      .cls-4 {
        fill: #fe7400;
      }

      .cls-5 {
        fill: #fff;
      }
    </style>
  </defs>
  <g id="Layer_1" data-name="Layer 1">
    <g>
      <g>
        <path class="cls-4" d="M0,0h414.08c0,176.34-92.7,319.29-207.04,319.29S0,176.34,0,0Z"/>
        <g>
          <ellipse class="cls-5" cx="142.9" cy="140.94" rx="54.88" ry="23.67"/>
          <ellipse class="cls-3" cx="142.9" cy="140.94" rx="32.43" ry="23.7"/>
        </g>
        <g>
          <ellipse class="cls-5" cx="271.18" cy="140.94" rx="54.88" ry="23.67"/>
          <ellipse class="cls-3" cx="271.18" cy="140.94" rx="32.43" ry="23.7"/>
        </g>
        <rect class="cls-4" x="53.01" y="76.28" width="308.07" height="64.66"/>
        <path d="M262.51,210.08c-3.67-4.93-7.5-9.81-12.15-13.87-16.78-15.13-41.17-20.91-62.96-14.97-13.56,4.16-25.3,13.18-33.55,24.65-3.35,4.34-6.09,9.13-7.96,14.29-2.2,9.64,11.64,13.26,14.48,3.8,7.82-16.74,25.4-32.89,50.57-29.79,9.05.65,23.8,6.45,32.25,15.87,5.57,6.14,4.93,5.57,8.48,10.45,1.65,2.01,2.59,4.72,4.75,6.23,4.52,3.96,12.17.02,11.98-5.9-.14-4.25-3.77-7.34-5.89-10.77Z"/>
      </g>
      <circle class="cls-2" cx="207.04" cy="165" r="33.05"/>
      <path class="cls-1" d="M148.37,215.96h0s.01-.01.02-.02l.06-.06.08-.08.1-.09.1-.1.1-.1.11-.1.11-.1.12-.11.13-.12.14-.12.16-.13.17-.14.18-.15.2-.16.21-.17.25-.2.27-.21.27-.21.28-.22.29-.22.29-.22.29-.22.29-.22.29-.22.29-.22.29-.22.29-.22.3-.22.3-.22.3-.22.3-.22.3-.21.3-.21.3-.21.3-.21.3-.21.3-.21.3-.21.3-.21.3-.21.31-.21.31-.21.31-.22.32-.22.32-.22.33-.22.35-.23.35-.23.36-.24.37-.24.37-.24.37-.24.37-.24.37-.24.37-.24.37-.23.37-.23.37-.23.37-.23.37-.23"/>
      <path class="cls-1" d="M150.58,221.33h0s.01-.02.02-.03l.06-.08.06-.09.07-.1.08-.11.09-.12.11-.14.12-.15.13-.16.15-.17.16-.19.18-.2.2-.22.22-.23.23-.25.25-.26.27-.27.28-.28.28-.28.29-.29.3-.29.3-.28.3-.28.3-.28.3-.28.3-.27.3-.27.3-.27.3-.27.3-.26.3-.26.3-.26.3-.26.3-.26.31-.26.31-.26.31-.26.31-.26.31-.26.31-.26.31-.25.31-.25.31-.25.31-.25.31-.25.31-.25.31-.25.32-.25.32-.25.32-.25.32-.25.32-.25.33-.25.33-.24.33-.24.33-.25.34-.25.35-.25.36-.26.37-.26.37-.26.37-.26.37-.26.37-.26.37-.25.38-.25.38-.25.38-.25.38-.25.38-.25.39-.25.39-.25.41-.26.42-.26.43-.27.45-.27.47-.28.49-.29.51-.29.53-.3.55-.31.57-.31.6-.32.62-.33.63-.33.64-.33.65-.33.67-.33.7-.33.71-.33.73-.34.75-.34.75-.33.75-.33.77-.33.79-.33.79-.32.81-.32.82-.31.84-.31.85-.3.85-.3.86-.29.89-.29.9-.28.91-.27.93-.27.94-.26.95-.25.95-.24.96-.23.97-.22.98-.21.99-.2.98-.18.98-.17.99-.16.99-.15.97-.14.97-.13.97-.11.96-.1.96-.09.97-.08.97-.07.98-.05.98-.04.97-.03.96-.02h.94s.92-.02.92-.02h.9s.89,0,.89,0h.88s.89.04.89.04l.88.04.87.04.85.05.83.05.81.05.79.06.78.06.76.07.75.07.73.07.72.08.7.08.69.08.68.09.67.09.67.1.68.12.68.13.67.13.65.13.64.13.63.13.62.14.6.14.59.14.58.14.57.14.56.14.55.14.54.14.52.14.51.14.5.14.49.14.48.14.47.14.46.14.45.13.44.13.43.13.42.13.41.13.4.13.39.13.38.13.38.12.37.12.36.12.35.12.34.12.33.12.33.12.32.11.31.11.31.11.3.11.29.11.28.11.28.11.27.1.26.1.26.1.25.1.25.1.24.1.23.09.23.09.22.09.22.09.21.09.21.09.2.08.2.08.19.08.19.08.18.08.18.08.17.08.17.07.17.07.16.07.16.07"/>
    </g>
  </g>
</svg>