<?xml version="1.0" encoding="UTF-8"?>
<svg id="Capa_2" data-name="Capa 2" xmlns="http://www.w3.org/2000/svg" xmlns:xlink="http://www.w3.org/1999/xlink" viewBox="0 0 314.47 272.69">
  <defs>
    <style>
      .cls-1 {
        fill: #f6eee8;
      }

      .cls-2 {
        clip-path: url(#clippath-1);
      }

      .cls-3 {
        clip-path: url(#clippath);
      }
    </style>
    <clipPath id="clippath">
      <ellipse class="cls-1" cx="228.71" cy="136.34" rx="85.77" ry="136.34"/>
    </clipPath>
    <clipPath id="clippath-1">
      <ellipse class="cls-1" cx="85.77" cy="136.34" rx="85.77" ry="136.34"/>
    </clipPath>
  </defs>
  <g id="_ÎÓÈ_1" data-name="—ÎÓÈ_1">
    <g>
      <ellipse class="cls-1" cx="228.71" cy="136.34" rx="85.77" ry="136.34"/>
      <g class="cls-3">
        <ellipse cx="227.5" cy="134.91" rx="40.64" ry="90.82"/>
        <path d="M227.5,227.98c-11.8,0-22.73-9.92-30.79-27.93-7.8-17.44-12.1-40.57-12.1-65.14s4.3-47.7,12.1-65.14c8.06-18.01,19-27.93,30.79-27.93s22.73,9.92,30.79,27.93c7.8,17.44,12.1,40.57,12.1,65.14s-4.3,47.7-12.1,65.14c-8.06,18.01-19,27.93-30.79,27.93ZM227.5,46.34c-9.92,0-19.39,8.97-26.69,25.27-7.55,16.87-11.71,39.35-11.71,63.3s4.16,46.43,11.71,63.3c7.29,16.3,16.77,25.27,26.69,25.27s19.39-8.97,26.69-25.27c7.55-16.87,11.71-39.35,11.71-63.3s-4.16-46.43-11.71-63.3c-7.29-16.3-16.77-25.27-26.69-25.27Z"/>
      </g>
    </g>
    <polygon class="cls-1" points="172.05 115.92 214.49 136.57 168.77 153.89 172.05 115.92"/>
    <g>
      <ellipse class="cls-1" cx="85.77" cy="136.34" rx="85.77" ry="136.34"/>
      <g class="cls-2">
        <ellipse cx="84.56" cy="134.91" rx="40.64" ry="90.82"/>
        <path d="M84.56,227.98c-11.8,0-22.73-9.92-30.79-27.93-7.8-17.44-12.1-40.57-12.1-65.14s4.3-47.7,12.1-65.14c8.06-18.01,19-27.93,30.79-27.93s22.73,9.92,30.79,27.93c7.8,17.44,12.1,40.57,12.1,65.14s-4.3,47.7-12.1,65.14c-8.06,18.01-19,27.93-30.79,27.93ZM84.56,46.34c-9.92,0-19.39,8.97-26.69,25.27-7.55,16.87-11.71,39.35-11.71,63.3s4.16,46.43,11.71,63.3c7.29,16.3,16.77,25.27,26.69,25.27s19.39-8.97,26.69-25.27c7.55-16.87,11.71-39.35,11.71-63.3s-4.16-46.43-11.71-63.3c-7.29-16.3-16.77-25.27-26.69-25.27Z"/>
      </g>
    </g>
    <polygon class="cls-1" points="29.11 115.92 71.55 136.57 25.83 153.89 29.11 115.92"/>
  </g>
</svg>