<?xml version="1.0" encoding="UTF-8"?>
<svg id="Capa_2" data-name="Capa 2" xmlns="http://www.w3.org/2000/svg" viewBox="0 0 319.46 319.46">
  <defs>
    <style>
      .cls-1 {
        fill: #e8e6df;
      }

      .cls-2 {
        fill: #ff6f00;
      }
    </style>
  </defs>
  <g id="_1" data-name="1">
    <rect class="cls-2" x="35.83" y="35.83" width="247.79" height="247.79" rx="37.39" ry="37.39" transform="translate(-66.16 159.73) rotate(-45)"/>
    <path class="cls-1" d="M122.41,103.17h24.42v23.68h-10.07l-1.2-10.13c-1.14,3.62-3.18,6.31-6.12,8.07-2.94,1.75-6.52,2.63-10.75,2.63-3.85,0-7.27-.86-10.27-2.57-2.99-1.72-5.34-4.18-7.04-7.38-1.7-3.2-2.54-6.94-2.54-11.21,0-6.83,2.04-12.22,6.12-16.19,4.08-3.97,10.43-5.95,19.05-5.95,4.92,0,9.26.8,13.01,2.4,3.76,1.6,6.95,4.08,9.58,7.43-1.72.88-5.07,2.63-10.07,5.26l-1.43.8c-1.49-1.49-3.22-2.6-5.21-3.35-1.98-.75-4.08-1.12-6.29-1.12-3.66,0-6.39.96-8.18,2.89-1.79,1.93-2.69,4.3-2.69,7.12,0,3.05.96,5.51,2.89,7.38,1.92,1.87,4.87,2.8,8.84,2.8,1.72,0,3.38-.24,5.01-.74,1.62-.49,2.98-1.35,4.09-2.57h-11.15v-9.27Z"/>
    <path class="cls-1" d="M157.58,121.73c-4.12-3.79-6.18-9.12-6.18-15.98s2.05-12.09,6.15-15.9c4.1-3.82,10.53-5.72,19.3-5.72s15.26,1.9,19.36,5.72c4.1,3.81,6.15,9.12,6.15,15.9s-2.04,12.24-6.12,16.02c-4.08,3.77-10.55,5.66-19.39,5.66s-15.16-1.9-19.28-5.69ZM186.01,113.32c1.87-1.62,2.8-4.15,2.8-7.58s-.93-5.85-2.8-7.49c-1.87-1.64-4.92-2.46-9.15-2.46s-7.23.82-9.09,2.46c-1.87,1.64-2.8,4.14-2.8,7.49s.93,5.91,2.8,7.55c1.87,1.64,4.9,2.46,9.09,2.46s7.28-.81,9.15-2.43Z"/>
    <path class="cls-1" d="M220.62,82.24c0,2.56-.1,7.46-.29,14.7-.08,1.15-.12,1.98-.12,2.52-.76,5.38-1.24,10.06-1.43,14.07h-10.58c-.19-4.01-.67-8.7-1.43-14.07l-.06-2.52c-.23-5.87-.34-10.77-.34-14.7h14.24ZM220.1,127.99h-13.27v-10.18h13.27v10.18Z"/>
    <path class="cls-1" d="M122.41,157.78h24.42v23.68h-10.07l-1.2-10.13c-1.14,3.62-3.18,6.31-6.12,8.07-2.94,1.75-6.52,2.63-10.75,2.63-3.85,0-7.27-.86-10.27-2.57-2.99-1.71-5.34-4.18-7.04-7.38-1.7-3.2-2.54-6.94-2.54-11.21,0-6.83,2.04-12.22,6.12-16.19,4.08-3.97,10.43-5.95,19.05-5.95,4.92,0,9.26.8,13.01,2.4,3.76,1.6,6.95,4.08,9.58,7.43-1.72.88-5.07,2.63-10.07,5.26l-1.43.8c-1.49-1.49-3.22-2.6-5.21-3.35-1.98-.75-4.08-1.12-6.29-1.12-3.66,0-6.39.96-8.18,2.89s-2.69,4.3-2.69,7.12c0,3.05.96,5.51,2.89,7.38,1.92,1.87,4.87,2.8,8.84,2.8,1.72,0,3.38-.24,5.01-.74,1.62-.49,2.98-1.35,4.09-2.57h-11.15v-9.27Z"/>
    <path class="cls-1" d="M157.58,176.34c-4.12-3.79-6.18-9.12-6.18-15.98s2.05-12.09,6.15-15.9c4.1-3.82,10.53-5.72,19.3-5.72s15.26,1.9,19.36,5.72c4.1,3.81,6.15,9.12,6.15,15.9s-2.04,12.24-6.12,16.02c-4.08,3.77-10.55,5.66-19.39,5.66s-15.16-1.9-19.28-5.69ZM186.01,167.94c1.87-1.62,2.8-4.15,2.8-7.58s-.93-5.85-2.8-7.49c-1.87-1.64-4.92-2.46-9.15-2.46s-7.23.82-9.09,2.46c-1.87,1.64-2.8,4.14-2.8,7.49s.93,5.91,2.8,7.55c1.87,1.64,4.9,2.46,9.09,2.46s7.28-.81,9.15-2.43Z"/>
    <path class="cls-1" d="M220.62,136.85c0,2.56-.1,7.46-.29,14.7-.08,1.15-.12,1.98-.12,2.52-.76,5.38-1.24,10.06-1.43,14.07h-10.58c-.19-4.01-.67-8.7-1.43-14.07l-.06-2.52c-.23-5.87-.34-10.77-.34-14.7h14.24ZM220.1,182.61h-13.27v-10.18h13.27v10.18Z"/>
    <path class="cls-1" d="M122.41,212.4h24.42v23.68h-10.07l-1.2-10.13c-1.14,3.62-3.18,6.31-6.12,8.07-2.94,1.75-6.52,2.63-10.75,2.63-3.85,0-7.27-.86-10.27-2.57-2.99-1.72-5.34-4.18-7.04-7.38-1.7-3.2-2.54-6.94-2.54-11.21,0-6.83,2.04-12.22,6.12-16.19,4.08-3.97,10.43-5.95,19.05-5.95,4.92,0,9.26.8,13.01,2.4,3.76,1.6,6.95,4.08,9.58,7.43-1.72.88-5.07,2.63-10.07,5.26l-1.43.8c-1.49-1.49-3.22-2.6-5.21-3.35-1.98-.75-4.08-1.12-6.29-1.12-3.66,0-6.39.96-8.18,2.89s-2.69,4.3-2.69,7.12c0,3.05.96,5.51,2.89,7.38,1.92,1.87,4.87,2.8,8.84,2.8,1.72,0,3.38-.24,5.01-.74,1.62-.49,2.98-1.35,4.09-2.57h-11.15v-9.27Z"/>
    <path class="cls-1" d="M157.58,230.96c-4.12-3.79-6.18-9.12-6.18-15.98s2.05-12.09,6.15-15.9c4.1-3.82,10.53-5.72,19.3-5.72s15.26,1.9,19.36,5.72c4.1,3.81,6.15,9.12,6.15,15.9s-2.04,12.24-6.12,16.02c-4.08,3.77-10.55,5.66-19.39,5.66s-15.16-1.9-19.28-5.69ZM186.01,222.55c1.87-1.62,2.8-4.15,2.8-7.58s-.93-5.85-2.8-7.49c-1.87-1.64-4.92-2.46-9.15-2.46s-7.23.82-9.09,2.46c-1.87,1.64-2.8,4.14-2.8,7.49s.93,5.91,2.8,7.55c1.87,1.64,4.9,2.46,9.09,2.46s7.28-.81,9.15-2.43Z"/>
    <path class="cls-1" d="M220.62,191.47c0,2.56-.1,7.46-.29,14.7-.08,1.15-.12,1.98-.12,2.52-.76,5.38-1.24,10.06-1.43,14.07h-10.58c-.19-4.01-.67-8.7-1.43-14.07l-.06-2.52c-.23-5.87-.34-10.77-.34-14.7h14.24ZM220.1,237.22h-13.27v-10.18h13.27v10.18Z"/>
  </g>
</svg>