<?xml version="1.0" encoding="UTF-8"?>
<svg id="Capa_2" data-name="Capa 2" xmlns="http://www.w3.org/2000/svg" viewBox="0 0 363.71 363.71">
  <defs>
    <style>
      .cls-1 {
        fill: #f6eee8;
      }

      .cls-2 {
        fill: #0b9e77;
      }
    </style>
  </defs>
  <g id="_ÎÓÈ_1" data-name="—ÎÓÈ_1">
    <polygon class="cls-2" points="363.71 157.61 272.34 157.61 351.47 111.92 327.22 69.93 248.1 115.61 293.78 36.49 251.78 12.24 206.1 91.36 206.1 0 157.61 0 157.61 91.36 111.92 12.24 69.93 36.49 115.61 115.61 36.49 69.93 12.24 111.92 91.36 157.61 0 157.61 0 206.1 91.36 206.1 12.24 251.78 36.49 293.78 115.61 248.1 69.93 327.22 111.92 351.47 157.61 272.34 157.61 363.71 206.1 363.71 206.1 272.34 251.78 351.47 293.78 327.22 248.1 248.1 327.22 293.78 351.47 251.78 272.34 206.1 363.71 206.1 363.71 157.61"/>
    <ellipse class="cls-1" cx="159" cy="162.68" rx="9.51" ry="16.94"/>
    <ellipse class="cls-1" cx="194.61" cy="162.68" rx="9.51" ry="16.94"/>
    <path class="cls-1" d="M176.8,222.96c-22.2,0-41.68-14.19-48.48-35.31-.85-2.63.6-5.45,3.23-6.29,2.63-.85,5.44.6,6.29,3.23,5.46,16.97,21.12,28.37,38.96,28.37s33.73-11.55,39.08-28.75c.82-2.64,3.62-4.11,6.26-3.29,2.64.82,4.11,3.62,3.29,6.26-6.66,21.4-26.2,35.78-48.63,35.78Z"/>
  </g>
</svg>