<?xml version="1.0" encoding="UTF-8"?>
<svg id="Capa_2" data-name="Capa 2" xmlns="http://www.w3.org/2000/svg" viewBox="0 0 179.14 249.36">
  <defs>
    <style>
      .cls-1 {
        fill: #1d1d1b;
      }
    </style>
  </defs>
  <g id="_ÎÓÈ_1" data-name="—ÎÓÈ_1">
    <path class="cls-1" d="M176.53,97.51h-4.69c-1.45,0-2.62-1.17-2.62-2.62v-4.22c0-1.44-1.17-2.62-2.62-2.62h-4.69c-1.44,0-2.62-1.17-2.62-2.62v-4.17c0-1.45-1.17-2.62-2.62-2.62h-14.62c-1.45,0-2.62-1.17-2.62-2.62v-4.69c0-1.45-1.17-2.62-2.62-2.62h-24.54c-1.45,0-2.62-1.17-2.62-2.62v-3.95c0-1.45-1.17-2.62-2.62-2.62h-14.62c-1.45,0-2.62-1.17-2.62-2.62V10.56c0-1.45-1.17-2.62-2.62-2.62h-4.69c-1.45,0-2.62-1.17-2.62-2.62v-2.71c0-1.44-1.17-2.62-2.62-2.62h-15.11c-1.44,0-2.62,1.17-2.62,2.62v1.71c0,1.44-1.17,2.62-2.62,2.62h-4.69c-1.44,0-2.62,1.17-2.62,2.62v96.99c0,1.44-1.17,2.62-2.62,2.62h-4.2c-1.45,0-2.62-1.17-2.62-2.62v-4.69c0-1.44-1.17-2.62-2.62-2.62h-4.44c-1.45,0-2.62-1.17-2.62-2.62v-4.69c0-1.44-1.17-2.62-2.62-2.62h-15.61c-1.45,0-2.62,1.17-2.62,2.62v4.2c0,1.44-1.17,2.62-2.62,2.62H2.62c-1.45,0-2.62,1.17-2.62,2.62v26.03c0,1.44,1.17,2.62,2.62,2.62h4.69c1.45,0,2.62,1.17,2.62,2.62v4.2c0,1.44,1.17,2.62,2.62,2.62h4.69c1.45,0,2.62,1.17,2.62,2.62v14.86c0,1.44,1.17,2.62,2.62,2.62h4.69c1.45,0,2.62,1.17,2.62,2.62v24.79c0,1.45,1.17,2.62,2.62,2.62h4.69c1.44,0,2.62,1.17,2.62,2.62v14.37c0,1.45,1.17,2.62,2.62,2.62h4.69c1.44,0,2.62,1.17,2.62,2.62v37.58h108.76v-.25h.91v-26.91c0-1.44,1.17-2.62,2.62-2.62h4.69c1.45,0,2.62-1.17,2.62-2.62v-33.47c0-1.45,1.17-2.62,2.62-2.62h4.69c1.45,0,2.62-1.17,2.62-2.62v-78.14c0-1.44-1.17-2.62-2.62-2.62ZM168.72,175.29c0,1.45-1.17,2.62-2.62,2.62h-4.69c-1.45,0-2.62,1.17-2.62,2.62v34.71c0,1.44-1.17,2.62-2.62,2.62h-4.69c-1.45,0-2.62,1.17-2.62,2.62v15.86c0,1.45-1.17,2.62-2.62,2.62H62.66c-1.45,0-2.62-1.17-2.62-2.62v-26.03c0-1.45-1.17-2.62-2.62-2.62h-4.69c-1.45,0-2.62-1.17-2.62-2.62v-14.12c0-1.45-1.17-2.62-2.62-2.62h-4.69c-1.45,0-2.62-1.17-2.62-2.62v-24.79c0-1.45-1.17-2.62-2.62-2.62h-4.69c-1.45,0-2.62-1.17-2.62-2.62v-14.37c0-1.44-1.17-2.62-2.62-2.62h-4.69c-1.45,0-2.62-1.17-2.62-2.62v-4.44c0-1.45-1.17-2.62-2.62-2.62h-4.69c-1.45,0-2.62-1.17-2.62-2.62v-24.05c0-1.44,1.17-2.62,2.62-2.62h14.12c1.45,0,2.62,1.17,2.62,2.62v4.69c0,1.44,1.17,2.62,2.62,2.62h4.69c1.44,0,2.62,1.17,2.62,2.62v4.69c0,1.45,1.17,2.62,2.62,2.62h4.69c1.44,0,2.62,1.17,2.62,2.62v17.59c0,1.45,1.17,2.62,2.62,2.62h5.19c1.45,0,2.62-1.17,2.62-2.62V13.04c0-1.45,1.17-2.62,2.62-2.62h14.12c1.44,0,2.62,1.17,2.62,2.62v86.08c0,1.45,1.17,2.62,2.62,2.62h5.19c1.45,0,2.62-1.17,2.62-2.62v-26.53c0-1.45,1.17-2.62,2.62-2.62h14.12c1.45,0,2.62,1.17,2.62,2.62v35.21c0,1.45,1.17,2.62,2.62,2.62h5.19c1.45,0,2.62-1.17,2.62-2.62v-26.03c0-1.45,1.17-2.62,2.62-2.62h14.12c1.45,0,2.62,1.17,2.62,2.62v35.96c0,1.45,1.17,2.62,2.62,2.62h5.19c1.44,0,2.62-1.17,2.62-2.62v-26.03c0-1.45,1.17-2.62,2.62-2.62h4.2c1.45,0,2.62,1.17,2.62,2.62v4.17c0,1.45,1.17,2.62,2.62,2.62h4.69c1.45,0,2.62,1.17,2.62,2.62v74.19Z"/>
  </g>
</svg>