<?xml version="1.0" encoding="UTF-8"?>
<svg id="Capa_2" data-name="Capa 2" xmlns="http://www.w3.org/2000/svg" viewBox="0 0 1718.26 1949.51">
  <defs>
    <style>
      .cls-1 {
        fill: #ff9cad;
      }
    </style>
  </defs>
  <g id="Layer_1" data-name="Layer 1">
    <path class="cls-1" d="M120.91,865.38C14.68,1011.7-49.14,1270.07,47.75,1517.45c84.07,214.65,351.85,410.87,584.76,428.48,31.59,2.39,62.46,3.57,92.7,3.57,299.36-.02,531.9-116.36,669.58-334.27,36.38-9.39,71.91-25.64,105.28-48.6,64.54-44.4,118.4-111.14,160.09-198.36,38.93-81.47,60.05-181.41,57.94-274.19-2.99-131.68-52.94-238.61-140.63-301.12-29.19-20.8-61.81-35.64-97.59-44.66-39.78-92.29-110.91-165.75-198.97-202.42,17.02-49.49,28.81-105.18,25.94-166.33-4.15-88.48-39.02-171.36-98.19-233.38-66.98-70.2-159.55-107.99-254.19-103.55-80.83,3.75-158.68,37.94-222.69,97.14-47.33-68.31-103.02-102.66-147.19-119.93-103.66-40.54-228.14-17.83-317.11,57.81-66.54,56.58-111.95,139.99-127.87,234.86-13.17,78.5-4.94,151.6,3.71,206.51,14.07,89.33,36.88,174.4,62.68,256.81-30.94,24.44-59.61,54.43-85.11,89.55Z"/>
    <path d="M726.94,1799c-26.86,0-54.43-1.07-82.73-3.21-82.55-6.24-179.86-46.17-266.95-109.54-42.45-30.88-79.96-65.31-111.49-102.32-33.34-39.13-58.09-79-73.56-118.5-33.41-85.3-44.41-180.73-31.81-275.96,11.46-86.64,42.03-167.75,86.06-228.41,50.03-68.9,112.34-104.82,175.44-101.12,79.22,4.64,144.62,14.28,194.38,28.66,59.44,17.18,98.44,41.05,119.23,72.97,26.09,40.06,34.9,82.97,25.49,124.1-8.36,36.51-31.17,70.34-64.23,95.25-37.73,28.43-86.28,43.25-133.2,40.62-53.53-2.98-101.4-27.16-138.44-69.91-6.68-7.71-5.84-19.37,1.86-26.05,7.71-6.68,19.37-5.84,26.05,1.86,38.34,44.25,82.38,55.54,112.58,57.22,38.35,2.14,78.05-9.98,108.93-33.24,26.12-19.68,44.04-45.95,50.45-73.99,7.13-31.14.06-64.23-20.43-95.7-15.53-23.84-48.68-43.23-98.53-57.64-47.12-13.62-109.8-22.8-186.29-27.27-50.08-2.94-101.02,27.59-143.39,85.95-40.49,55.77-68.66,130.9-79.33,211.55-11.78,89.06-1.55,178.15,29.58,257.65,27.5,70.21,90.33,144.72,172.39,204.42,81.71,59.45,172.1,96.84,248.01,102.58,153.1,11.58,283.84-9.26,388.56-61.93,104.46-52.54,183.71-137.25,235.55-251.79,4.21-9.29,15.15-13.42,24.44-9.21,9.29,4.21,13.42,15.15,9.21,24.44-55.41,122.44-140.4,213.13-252.6,269.56-91.19,45.86-200.32,68.97-325.22,68.97Z"/>
    <path d="M613.79,1125.79c-15.84,0-32.36-3.56-49.22-10.71-16.53-7.01-29.88-16.09-38.17-22.47-9.58-7.38-17.7-15.17-22.28-21.38-11.93-16.18-14.59-41.07-7.31-68.28,6.61-24.7,20.08-46.49,36.04-58.3h0c19.71-14.59,50.97-12.25,73.71-7.71,18.82,3.75,38.41,10.3,55.17,18.43,19.5,9.46,32.67,19.75,39.16,30.57,10.65,17.76,12.93,42.21,6.27,67.09-6.2,23.15-19.35,43.48-35.16,54.39-17.75,12.24-37.4,18.39-58.2,18.39ZM554.82,974.33c-9.18,6.79-17.94,21.77-22.33,38.16-4.17,15.58-3.64,30.03,1.36,36.81,3.62,4.9,21.03,21.54,45.14,31.77,27.17,11.52,51.41,10.15,72.03-4.07,20.98-14.47,28.62-54.68,18.19-72.07-4.95-8.26-34.64-24.75-69.87-31.77-23.36-4.66-39.19-2.76-44.52,1.18h0Z"/>
    <path d="M1059.44,1347.77c-13.93,0-28.87-3.6-43.31-10.66-21.53-10.52-38.97-27.31-46.64-44.93-15.18-34.82-10.67-71.78,13.04-106.9,10.05-14.89,21.52-26.25,29.37-33.16,9.08-7.99,18.28-14.47,25.25-17.77,18.17-8.61,43.1-6.46,68.42,5.9,22.98,11.22,41.79,28.62,50.32,46.53h0c10.54,22.14,2.26,52.37-6.55,73.82-7.29,17.75-17.46,35.73-28.65,50.62-13.02,17.32-25.64,28.29-37.5,32.58-7.32,2.65-15.35,3.96-23.74,3.96ZM1062.01,1166.03c-3.55,0-6.63.55-9.04,1.7-5.51,2.61-25.17,16.52-39.82,38.22-16.51,24.46-19.81,48.51-9.8,71.48,10.18,23.36,48.18,38.57,67.25,31.66,9.06-3.28,30.92-29.26,44.56-62.5,9.04-22.03,10.22-37.93,7.37-43.92h0c-4.91-10.31-17.93-21.78-33.18-29.22-9.9-4.83-19.7-7.41-27.35-7.41Z"/>
    <path d="M1356.52,1430.04c-13.93,0-28.87-3.6-43.31-10.66-21.53-10.52-38.97-27.31-46.64-44.93-15.18-34.82-10.67-71.78,13.04-106.9,10.05-14.88,21.52-26.25,29.37-33.16,9.07-7.99,18.28-14.47,25.25-17.77,18.17-8.61,43.1-6.46,68.42,5.9,22.98,11.22,41.79,28.62,50.32,46.53h0c10.54,22.14,2.26,52.37-6.55,73.83-7.29,17.75-17.46,35.73-28.65,50.62-13.02,17.32-25.64,28.28-37.5,32.58-7.32,2.65-15.35,3.96-23.74,3.96ZM1359.09,1248.3c-3.55,0-6.63.56-9.04,1.7-5.51,2.61-25.17,16.52-39.82,38.22-16.51,24.46-19.81,48.51-9.8,71.48,10.18,23.36,48.18,38.57,67.25,31.66,9.06-3.28,30.92-29.26,44.56-62.49,9.04-22.03,10.22-37.94,7.37-43.92h0c-4.91-10.31-17.93-21.78-33.18-29.22-9.9-4.83-19.7-7.41-27.35-7.41Z"/>
    <path d="M897.09,959.17c-2.8,0-5.64-.64-8.31-1.98-9.11-4.6-12.76-15.7-8.17-24.81l174.44-345.66c29.61-58.67,63.17-125.18,59.96-193.62-1.95-41.65-18.46-81.67-45.3-109.8-28.16-29.51-67.91-46.07-106.31-44.28-40.35,1.87-82.62,24.22-115.97,61.3-31.76,35.32-53.49,80.03-72.23,123.09-43.3,99.48-77.19,203.63-100.72,309.54-2.08,9.38-11.01,15.59-20.53,14.29-9.52-1.3-16.45-9.69-15.94-19.28,4.3-80.78,7.33-147.92,3.97-215.29-3.82-76.63-16.01-141.51-37.29-198.35-22.07-58.98-52.36-96.35-90.02-111.07-38.13-14.9-87.46-4.75-122.76,25.26-32.11,27.3-54.43,70.03-62.87,120.32-8.59,51.19-2.36,104.3,4.02,144.85,20.27,128.71,63.45,254.63,105.21,376.4,3.31,9.65-1.83,20.15-11.48,23.46-9.65,3.31-20.15-1.83-23.46-11.48-42.27-123.27-85.99-250.75-106.76-382.64-6.82-43.31-13.44-100.26-3.96-156.71,9.88-58.86,36.65-109.41,75.37-142.34,21.71-18.46,47.85-31.38,75.59-37.34,29.39-6.32,58.63-4.31,84.54,5.82,47.85,18.71,85.25,63.3,111.16,132.53,22.63,60.46,35.57,128.97,39.58,209.46.98,19.67,1.42,39.5,1.45,59.64,17.65-54.94,38.04-109.02,61.01-161.81,19.99-45.92,43.35-93.82,78.63-133.05,18.58-20.66,40.41-38.15,63.13-50.57,25.58-13.98,52.02-21.7,78.59-22.93,48.94-2.28,99.32,18.54,134.75,55.68,32.89,34.47,53.11,83.15,55.47,133.56,3.66,78.14-33.79,152.35-63.88,211.99l-174.44,345.65c-3.25,6.44-9.75,10.15-16.5,10.15Z"/>
    <path d="M1024.69,1390.94c-40.75,0-77.06-12.37-105.45-36-26.17-21.78-44.76-52.71-53.76-89.45-8.06-32.9-8.02-69.92.12-104.24,15.49-65.34,55.11-121.76,95.61-173.01,6.32-8,17.94-9.36,25.94-3.04,8,6.32,9.36,17.94,3.04,25.94-64.07,81.08-80.47,124.15-88.65,158.63-6.81,28.73-6.88,59.6-.18,86.93,7.11,29.01,21.46,53.16,41.51,69.84,29.25,24.34,64.32,28.29,88.6,27.31,33.13-1.33,66.9-12.45,95.07-31.31,58.47-39.13,95.84-102.61,127.51-165.39,37.05-73.43,74.1-160.63,68.07-250.54-2.85-42.5-17.79-84.66-42.05-118.69-17.86-25.05-49.08-57.13-96.39-67.67-34.02-7.58-65.37-6.57-95.84,3.09-27.99,8.87-55.87,24.93-87.72,50.55-7.95,6.39-19.57,5.13-25.97-2.82-6.39-7.95-5.13-19.57,2.82-25.97,35.53-28.57,67.22-46.68,99.71-56.97,36.85-11.68,74.48-12.96,115.03-3.93,46.49,10.36,87.44,38.81,118.43,82.29,28.18,39.53,45.52,88.42,48.82,137.66,2.96,44.15-2.96,90.01-18.11,140.2-11.67,38.65-28.77,79.78-53.83,129.45-14.1,27.95-33.43,64.35-57.91,98.04-25.25,34.74-52.09,61.37-82.03,81.41-33.76,22.59-74.29,35.91-114.13,37.52-2.77.11-5.53.17-8.26.17Z"/>
    <path d="M1320.85,1474.22c-11.4,0-22.72-1.45-33.89-4.36-40.7-10.62-72.55-38.26-92.1-79.92-18.08-38.53-21.54-79.46-21.99-100.44-.22-10.2,7.87-18.64,18.06-18.86,10.18-.24,18.64,7.87,18.86,18.06.63,28.98,8.71,125.11,86.49,145.41,30.42,7.94,63.25.62,94.94-21.18,35.96-24.74,69.03-67.24,95.64-122.93,25.99-54.38,40.65-124.29,39.22-187.01-.92-40.33-9.94-113.33-60.08-149.07-27.25-19.42-67.24-24.32-122.25-14.96-10.05,1.71-19.59-5.05-21.3-15.11-1.71-10.06,5.05-19.59,15.11-21.3,65.19-11.09,114.21-4.13,149.88,21.29,25.15,17.92,44.43,43.9,57.31,77.22,11.25,29.09,17.39,63.1,18.26,101.09,1.55,68.24-14.46,144.41-42.82,203.77-29.39,61.51-66.75,109.04-108.03,137.43-29.71,20.44-60.75,30.85-91.31,30.85Z"/>
  </g>
</svg>