<?xml version="1.0" encoding="UTF-8"?>
<svg id="Capa_2" data-name="Capa 2" xmlns="http://www.w3.org/2000/svg" viewBox="0 0 127.17 17.69">
  <defs>
    <style>
      .cls-1 {
        fill: none;
        stroke: #6bb264;
        stroke-linecap: square;
        stroke-miterlimit: 10;
        stroke-width: 6px;
      }
    </style>
  </defs>
  <g id="OBJECTS">
    <path class="cls-1" d="M123.02,12.3l-3.56-5.58c-3.18-4.97-10.44-4.97-13.61,0l-2.7,4.23c-3.18,4.97-10.44,4.97-13.61,0l-2.7-4.23c-3.18-4.97-10.44-4.97-13.61,0l-2.7,4.23c-3.18,4.97-10.44,4.97-13.61,0l-2.7-4.23c-3.18-4.97-10.44-4.97-13.61,0l-2.7,4.23c-3.18,4.97-10.44,4.97-13.61,0l-2.7-4.23c-3.18-4.97-10.44-4.97-13.61,0l-3.8,5.94"/>
  </g>
</svg>