<?xml version="1.0" encoding="UTF-8"?>
<svg id="Capa_2" data-name="Capa 2" xmlns="http://www.w3.org/2000/svg" viewBox="0 0 363.44 363.44">
  <defs>
    <style>
      .cls-1 {
        fill: #fad414;
      }
    </style>
  </defs>
  <g id="_ÎÓÈ_1" data-name="—ÎÓÈ_1">
    <path class="cls-1" d="M43.07,320.37h0c-57.43-57.43-57.43-150.54,0-207.97L112.4,43.07c57.43-57.43,150.54-57.43,207.97,0h0c57.43,57.43,57.43,150.54,0,207.97l-69.32,69.32c-57.43,57.43-150.54,57.43-207.97,0Z"/>
    <path d="M183.96,78.67l11.35-11.35,29.52,65.31,67.76,29.46-11.78,11.78-63.72-28.15,45.94,45.94-43.03,43.03-96.02-96.02,42.92-42.92,45.77,45.77-28.7-62.85Z"/>
    <path d="M223.44,84.39l40.54,29.28c5.83,4.21,13.37,3.97,17.91-.57s4.78-12.15.52-17.98l-29.17-39.93c-.17-.23-.32-.46-.48-.7-.53-.79-1.22-1.68-2.07-2.67-.98-1.13-1.89-2.13-2.75-2.99-2.29-2.29-4.91-4.09-7.84-5.38-2.93-1.29-5.85-2.02-8.74-2.19-2.89-.17-5.73.24-8.51,1.22-2.78.98-5.19,2.49-7.23,4.53-2.12,2.12-3.66,4.56-4.62,7.32-.96,2.76-1.35,5.58-1.16,8.45.19,2.87.93,5.78,2.22,8.71,1.29,2.94,3.09,5.55,5.38,7.84.94.94,1.94,1.86,2.99,2.75,1.05.89,2.06,1.66,3.03,2.31Z"/>
    <path d="M101.11,169.89c-30.85,11.8-44.76,50.38-31.07,86.17,13.69,35.79,49.8,55.23,80.65,43.42,30.85-11.8,44.76-50.38,31.07-86.17-13.69-35.79-49.8-55.23-80.65-43.42ZM140.72,229.02c12.03,31.43,15.14,59.45,6.96,62.58-8.19,3.13-24.57-19.81-36.59-51.24-12.03-31.43-15.14-59.45-6.96-62.58,8.18-3.13,24.57,19.81,36.59,51.24Z"/>
  </g>
</svg>