<?xml version="1.0" encoding="UTF-8"?>
<svg id="Capa_2" data-name="Capa 2" xmlns="http://www.w3.org/2000/svg" viewBox="0 0 500.75 183.46">
  <defs>
    <style>
      .cls-1 {
        fill: #fad414;
      }
    </style>
  </defs>
  <g id="_ÎÓÈ_1" data-name="—ÎÓÈ_1">
    <path class="cls-1" d="M385.97,55.29c-14.94,0-28.95-6.09-39.44-17.16-7.61-8.03-17.68-12.45-28.36-12.45s-20.74,4.42-28.36,12.45c-10.5,11.07-24.5,17.16-39.44,17.16s-28.95-6.1-39.44-17.16c-7.61-8.03-17.68-12.45-28.36-12.45s-20.74,4.42-28.36,12.45c-10.5,11.07-24.5,17.16-39.44,17.16s-28.95-6.1-39.44-17.16c-7.61-8.03-17.68-12.45-28.36-12.45s-20.74,4.42-28.36,12.45L0,20.46C12.51,7.27,29.2,0,46.99,0s34.48,7.27,46.99,20.46c5.6,5.9,12.99,9.15,20.81,9.15s15.21-3.25,20.81-9.15C148.1,7.27,164.79,0,182.58,0s34.48,7.27,46.99,20.46c5.6,5.9,12.99,9.15,20.81,9.15s15.21-3.25,20.81-9.15c12.51-13.19,29.2-20.46,46.99-20.46s34.48,7.27,46.99,20.46c5.6,5.9,12.99,9.15,20.81,9.15,7.82,0,15.21-3.25,20.81-9.15,12.51-13.19,29.2-20.46,46.99-20.46s34.48,7.27,46.99,20.46l-18.63,17.67c-7.61-8.03-17.68-12.45-28.36-12.45s-20.74,4.42-28.36,12.45c-10.49,11.07-24.5,17.16-39.44,17.16Z"/>
    <path class="cls-1" d="M385.97,119.38c-14.94,0-28.95-6.1-39.44-17.16-7.61-8.03-17.68-12.45-28.36-12.45s-20.74,4.42-28.36,12.45c-10.5,11.07-24.5,17.16-39.44,17.16s-28.95-6.1-39.44-17.16c-7.61-8.03-17.68-12.45-28.36-12.45s-20.74,4.42-28.36,12.45c-10.5,11.07-24.5,17.16-39.44,17.16s-28.95-6.1-39.44-17.16c-7.61-8.03-17.68-12.45-28.36-12.45s-20.74,4.42-28.36,12.45L0,84.54c12.51-13.19,29.2-20.46,46.99-20.46s34.48,7.27,46.99,20.46c5.6,5.9,12.99,9.15,20.81,9.15s15.21-3.25,20.81-9.15c12.51-13.19,29.2-20.46,46.99-20.46s34.48,7.27,46.99,20.46c5.6,5.9,12.99,9.15,20.81,9.15s15.21-3.25,20.81-9.15c12.51-13.19,29.2-20.46,46.99-20.46s34.48,7.27,46.99,20.46c5.6,5.9,12.99,9.15,20.81,9.15,7.82,0,15.21-3.25,20.81-9.15,12.51-13.19,29.2-20.46,46.99-20.46s34.48,7.27,46.99,20.46l-18.63,17.67c-7.61-8.03-17.68-12.45-28.36-12.45s-20.74,4.42-28.36,12.45c-10.49,11.07-24.5,17.16-39.44,17.16Z"/>
    <path class="cls-1" d="M385.97,183.46c-14.94,0-28.95-6.1-39.44-17.16-7.61-8.03-17.68-12.45-28.36-12.45s-20.74,4.42-28.36,12.45c-10.5,11.07-24.5,17.16-39.44,17.16s-28.95-6.1-39.44-17.16c-7.61-8.03-17.68-12.45-28.36-12.45s-20.74,4.42-28.36,12.45c-10.5,11.07-24.5,17.16-39.44,17.16s-28.95-6.1-39.44-17.16c-7.61-8.03-17.68-12.45-28.36-12.45s-20.74,4.42-28.36,12.45L0,148.63c12.51-13.19,29.2-20.46,46.99-20.46s34.48,7.27,46.99,20.46c5.6,5.9,12.99,9.15,20.81,9.15s15.21-3.25,20.81-9.15c12.51-13.19,29.2-20.46,46.99-20.46s34.48,7.27,46.99,20.46c5.6,5.9,12.99,9.15,20.81,9.15s15.21-3.25,20.81-9.15c12.51-13.19,29.2-20.46,46.99-20.46s34.48,7.27,46.99,20.46c5.6,5.9,12.99,9.15,20.81,9.15,7.82,0,15.21-3.25,20.81-9.15,12.51-13.19,29.2-20.46,46.99-20.46s34.48,7.27,46.99,20.46l-18.63,17.67c-7.61-8.03-17.68-12.45-28.36-12.45s-20.74,4.42-28.36,12.45c-10.49,11.07-24.5,17.16-39.44,17.16Z"/>
  </g>
</svg>