<?xml version="1.0" encoding="UTF-8"?>
<svg id="Capa_2" data-name="Capa 2" xmlns="http://www.w3.org/2000/svg" viewBox="0 0 680.3 480.43">
  <defs>
    <style>
      .cls-1 {
        fill: #f6eee8;
      }

      .cls-2 {
        fill: #e1602f;
      }
    </style>
  </defs>
  <g id="_ÎÓÈ_1" data-name="—ÎÓÈ_1">
    <path class="cls-2" d="M680.3,195.42c-40.37-3.39-80.85-4.17-121.29-3.25,39.26-16.9,77.81-35.44,115.09-56.48-42.63,3.97-84.86,10.72-126.75,19.22,33.75-22.31,66.56-46.02,97.79-71.83-43.26,11.55-85.55,26.16-127.14,42.58,27.24-26.79,53.3-54.76,77.39-84.48-41.69,19.37-81.62,42.08-120.4,66.63,12.69-19.99,24.82-40.36,36.28-61.14,5.94-11.05,11.76-22.19,16.98-33.83-10.46,7.3-20.31,15.11-30.05,23.01-25.48,21.14-49.94,43.41-73.51,66.56,6.79-22.72,12.78-45.68,17.82-68.91,2.26-11.02,4.38-22.1,5.78-33.51-7.61,8.61-14.5,17.55-21.25,26.54-19.19,26.21-36.86,53.4-53.24,81.35-1.17-24.74-3.43-49.44-6.98-74.04-1.59-10.08-3.33-20.17-5.85-30.33-4.26,9.56-7.73,19.2-11.05,28.84-9.48,28.7-17.1,57.9-23.2,87.41-11.97-26.16-24.73-50.49-37.91-72-5.18-8.31-10.51-16.57-16.59-24.59-.42,10.06-.08,19.88.39,29.66,1.43,25.19,4.82,52.45,9.91,80.76-21.83-20.77-44.74-40.41-68.89-58.58-8.23-6.03-16.57-11.96-25.52-17.39,3.72,9.78,8.05,19.07,12.49,28.25,11.1,22.23,23.33,43.81,36.48,64.8-29.4-13.62-59.42-25.89-90.12-36.47-10.68-3.54-21.43-6.95-32.59-9.69,7.65,8.57,15.72,16.47,23.86,24.23,17.39,16.2,35.4,31.66,53.93,46.45-32.57-5.58-65.36-9.93-98.35-12.77-12.5-.94-25.05-1.74-37.81-1.77,10.92,6.59,22.06,12.42,33.23,18.11,21.26,10.53,42.83,20.35,64.66,29.54-32.06,1.49-64.09,4-96.02,7.69-13.6,1.71-27.21,3.57-40.87,6.22,13.28,4.15,26.6,7.51,39.93,10.72,23.91,5.51,47.94,10.32,72.07,14.54-29.39,7.01-58.59,14.8-87.56,23.52-13.85,4.31-27.68,8.77-41.41,14.01,14.62,1.51,29.13,2.23,43.63,2.81,26.02.79,52.03.87,78.02.35-25.69,11.15-51.12,22.94-76.23,35.44-13.19,6.66-26.32,13.55-39.22,21.14,14.93-1.12,29.63-2.94,44.27-4.99,27.75-4.05,55.36-8.86,82.83-14.35-21.65,14.39-42.97,29.29-63.9,44.77-11.58,8.74-23.09,17.61-34.24,27.18,14.27-3.52,28.17-7.75,42.01-12.1,28.77-9.36,57.21-19.61,85.34-30.61-17.42,17.22-34.42,34.88-50.92,53.04-9.12,10.24-18.15,20.59-26.69,31.57,12.73-5.61,24.97-11.84,37.12-18.19,28.31-15.16,56.01-31.34,83.18-48.37-19.55,30.56-37.59,62.06-53.16,94.9,36.98-27.02,71.13-57.49,103.59-89.69-10.21,33.58-18.52,67.72-23.63,102.53,28.32-33.6,52.55-70.24,74.52-108.18,1.45,35.16,5.17,70.21,12.81,104.65,15.57-37.49,26.17-76.67,34.13-116.36,16.53,36,34.93,69.06,54.61,96.7.41-33.94-3.33-71.59-10.27-110.58,29.18,28.06,60.22,54.21,94.39,76.13-13.36-32.65-30.29-63.57-49.15-93.27,39.68,18.64,80.48,34.93,122.9,46.38-24.04-25.68-50.34-48.99-77.87-70.76,45.02,7.95,90.45,13.51,136.24,14.62-31.52-18.11-64.3-33.7-97.79-47.66,45.82-1.94,91.53-6.06,136.79-13.9-36.75-10.68-74.1-18.8-111.75-25.28,43.53-10.22,86.6-22.33,128.73-37.51Z"/>
    <path class="cls-1" d="M498.26,206.85c-1.38-.97-3-1.56-4.84-1.78-1.84-.22-3.74.03-5.69.73-2.02.73-3.9,1.86-5.63,3.37-1.73,1.51-3.19,3.22-4.39,5.12-1.2,1.91-2.14,4-2.8,6.27-.67,2.28-.95,4.49-.82,6.65.13,2.25.64,4.2,1.53,5.86.89,1.67,2.02,2.99,3.38,3.96,1.36.98,2.96,1.58,4.78,1.8,1.83.22,3.75-.03,5.78-.76,1.95-.71,3.8-1.82,5.54-3.34,1.75-1.52,3.23-3.23,4.45-5.15,1.22-1.91,2.16-3.98,2.83-6.22.67-2.23.94-4.47.82-6.72-.12-2.16-.63-4.09-1.53-5.8-.9-1.71-2.04-3.04-3.42-4.02Z"/>
    <path class="cls-1" d="M467.17,149.21l9,42.16c1.29,6.06,6.03,9.09,11.25,7.2,5.24-1.9,9.46-8.22,10-14.99l3.68-46.29c.02-.26.05-.53.08-.8.1-.9.16-1.95.17-3.15.01-1.38,0-2.61-.07-3.7-.17-2.92-.8-5.56-1.89-7.92-1.1-2.35-2.48-4.22-4.16-5.6-1.68-1.38-3.63-2.25-5.86-2.62-2.23-.36-4.52-.12-6.86.73-2.44.88-4.7,2.29-6.77,4.21-2.08,1.92-3.83,4.14-5.26,6.65-1.43,2.51-2.54,5.28-3.33,8.32-.79,3.04-1.1,6.02-.94,8.94.07,1.2.18,2.41.35,3.6.16,1.2.36,2.28.61,3.25Z"/>
    <path class="cls-1" d="M197.29,233.12c-24.7-2.43-47.72,20.66-51.43,51.56-3.71,30.91,13.3,57.93,38,60.36s47.72-20.66,51.43-51.56c3.71-30.91-13.3-57.93-38-60.36ZM202.75,289.91c-2.03,26.73-9.36,48.01-16.38,47.53-7.01-.48-11.05-22.54-9.01-49.27,2.03-26.73,9.36-48.01,16.38-47.53,7.01.48,11.05,22.54,9.01,49.27Z"/>
    <path class="cls-1" d="M322.28,298.72l-1.37-28.4c3.37-1.22,5.56-2.62,6.55-4.21,1-1.58,1.41-4.03,1.25-7.35l-2.12-43.94-15.76,88.05-22.14,8.02-23.71-69.38,1.96,40.58c.08,1.68.26,2.98.54,3.89.28.91.73,1.54,1.35,1.89.62.35,1.48.4,2.58.15,1.1-.24,2.47-.66,4.12-1.26l1.37,28.4-37.2,13.48-1.37-28.4c3.37-1.22,5.76-2.7,7.16-4.43,1.4-1.73,2.02-4.25,1.86-7.57l-1.87-38.74c-.16-3.37-1-5.39-2.51-6.06-1.52-.67-3.96-.4-7.33.83l-1.37-28.4,54.74-19.84,15.78,48.11,8.95-57.07,54.05-19.59,1.37,28.4c-3.38,1.22-5.75,2.7-7.13,4.42-1.38,1.72-1.99,4.26-1.83,7.63l1.87,38.74c.16,3.32.99,5.32,2.48,5.99,1.49.68,3.93.41,7.3-.82l1.37,28.4-50.95,18.47Z"/>
    <path class="cls-1" d="M427.64,208.9c-2.06,26.69-9.41,47.95-16.43,47.47-7.02-.47-11.03-22.5-8.97-49.19,2.06-26.69,9.41-47.95,16.43-47.47,4.84.33,8.26,10.92,9.23,26.23l8.06-2.92,15.99-5.79,4.14-1.5-.66-37.56-18.97,6.88.22,5.99c-.87-.38-1.99-.84-3.37-1.41-1.38-.56-3.07-.96-5.06-1.2-1.99-.24-4.29-.21-6.9.09-2.61.3-5.52,1.04-8.74,2.21-5.52,2-10.87,5.03-16.04,9.07-5.17,4.05-9.75,9.12-13.74,15.2-3.99,6.09-7.13,13.19-9.41,21.3-2.28,8.11-3.24,17.21-2.86,27.3.37,10.09,1.89,18.29,4.56,24.61s6.14,11.02,10.43,14.11c4.29,3.09,9.24,4.7,14.84,4.84,5.6.14,11.5-.91,17.71-3.16,5.52-2,10.36-4.82,14.52-8.45,4.16-3.63,7.39-7.27,9.7-10.92l2.17,6.62,17.65-6.4-1.11-29.97c-.12-3.17.53-5.59,1.95-7.26,1.41-1.67,3.81-3.12,7.18-4.34l-.9-24.12-41.07,14.88c.03,4.7-.13,9.69-.53,14.86Z"/>
  </g>
</svg>