<?xml version="1.0" encoding="UTF-8"?>
<svg id="Capa_2" data-name="Capa 2" xmlns="http://www.w3.org/2000/svg" viewBox="0 0 161.86 80.66">
  <defs>
    <style>
      .cls-1 {
        fill: none;
        stroke: #1c1d26;
        stroke-miterlimit: 10;
        stroke-width: 2px;
      }
    </style>
  </defs>
  <g id="OBJECTS">
    <path class="cls-1" d="M23.28,20.92l-9.42,26.94c-.43,1.22.5,2.49,1.79,2.46l28.54-.65c.83-.02,1.58.52,1.82,1.32l8.19,27.35c.37,1.24,1.87,1.73,2.9.94l22.71-17.31c.66-.51,1.58-.51,2.25,0l22.71,17.31c1.03.79,2.53.3,2.9-.94l8.19-27.35c.24-.8.98-1.34,1.82-1.32l28.54.65c1.29.03,2.22-1.24,1.79-2.46l-9.42-26.94c-.28-.79,0-1.66.69-2.14l20.78-14.4c1.49-1.03.76-3.38-1.06-3.38H2.86C1.04,1,.31,3.34,1.8,4.38l20.78,14.4c.68.47.97,1.35.69,2.14Z"/>
  </g>
</svg>