<?xml version="1.0" encoding="UTF-8"?>
<svg id="Capa_2" data-name="Capa 2" xmlns="http://www.w3.org/2000/svg" viewBox="0 0 78.6 78.6">
  <defs>
    <style>
      .cls-1 {
        fill: none;
        stroke: #1c1d26;
        stroke-miterlimit: 10;
        stroke-width: 2px;
      }
    </style>
  </defs>
  <g id="OBJECTS">
    <path class="cls-1" d="M61.76,23.46c-2.48,0-5.35.57-8.2,1.58,1.01-2.85,1.58-5.72,1.58-8.2,0-8.75-7.09-15.84-15.84-15.84s-15.84,7.09-15.84,15.84c0,2.48.57,5.35,1.58,8.2-2.85-1.01-5.72-1.58-8.2-1.58-8.75,0-15.84,7.09-15.84,15.84s7.09,15.84,15.84,15.84c2.48,0,5.35-.57,8.2-1.58-1.01,2.85-1.58,5.72-1.58,8.2,0,8.75,7.09,15.84,15.84,15.84s15.84-7.09,15.84-15.84c0-2.48-.57-5.35-1.58-8.2,2.85,1.01,5.72,1.58,8.2,1.58,8.75,0,15.84-7.09,15.84-15.84s-7.09-15.84-15.84-15.84Z"/>
  </g>
</svg>