<?xml version="1.0" encoding="UTF-8"?>
<svg id="Capa_2" data-name="Capa 2" xmlns="http://www.w3.org/2000/svg" xmlns:xlink="http://www.w3.org/1999/xlink" viewBox="0 0 297.32 297.32">
  <defs>
    <style>
      .cls-1 {
        fill: #f6eee8;
      }

      .cls-2 {
        clip-path: url(#clippath-1);
      }

      .cls-3 {
        fill: #e279b7;
      }

      .cls-4 {
        fill: #e3aaca;
      }

      .cls-5 {
        clip-path: url(#clippath);
      }
    </style>
    <clipPath id="clippath">
      <ellipse class="cls-1" cx="177.76" cy="108.29" rx="36.73" ry="58.4"/>
    </clipPath>
    <clipPath id="clippath-1">
      <ellipse class="cls-1" cx="116.54" cy="108.29" rx="36.73" ry="58.4"/>
    </clipPath>
  </defs>
  <g id="_ÎÓÈ_1" data-name="—ÎÓÈ_1">
    <circle class="cls-4" cx="148.66" cy="148.66" r="148.66"/>
    <g>
      <ellipse class="cls-1" cx="177.76" cy="108.29" rx="36.73" ry="58.4"/>
      <g class="cls-5">
        <ellipse cx="169.58" cy="106.32" rx="22.38" ry="34.54"/>
        <path d="M169.58,143.11c-13.58,0-24.63-16.5-24.63-36.79s11.05-36.79,24.63-36.79,24.63,16.5,24.63,36.79-11.05,36.79-24.63,36.79ZM169.58,74.03c-11.1,0-20.13,14.49-20.13,32.29s9.03,32.29,20.13,32.29,20.13-14.49,20.13-32.29-9.03-32.29-20.13-32.29Z"/>
      </g>
    </g>
    <polygon class="cls-1" points="197.1 113.3 173.72 101.93 198.9 92.39 197.1 113.3"/>
    <path class="cls-3" d="M213.52,121.67c-3.81,25.8-18.37,45.01-35.76,45.01s-31.96-19.21-35.76-45.01h71.53Z"/>
    <g>
      <ellipse class="cls-1" cx="116.54" cy="108.29" rx="36.73" ry="58.4"/>
      <g class="cls-2">
        <ellipse cx="108.36" cy="106.32" rx="22.38" ry="34.54"/>
        <path d="M108.36,143.11c-13.58,0-24.63-16.5-24.63-36.79s11.05-36.79,24.63-36.79,24.63,16.5,24.63,36.79-11.05,36.79-24.63,36.79ZM108.36,74.03c-11.1,0-20.13,14.49-20.13,32.29s9.03,32.29,20.13,32.29,20.13-14.49,20.13-32.29-9.03-32.29-20.13-32.29Z"/>
      </g>
    </g>
    <polygon class="cls-1" points="135.87 113.3 112.5 101.93 137.68 92.39 135.87 113.3"/>
    <path class="cls-3" d="M152.3,121.67c-3.81,25.8-18.37,45.01-35.76,45.01s-31.96-19.21-35.76-45.01h71.53Z"/>
    <path class="cls-3" d="M230.04,182.68c-5.6-10.14-18.37-13.81-28.5-8.2-28.71,15.88-76.82,14.84-105.04-2.26-9.9-6-22.8-2.84-28.81,7.07-6,9.91-2.84,22.8,7.07,28.81,20.42,12.37,46.76,18.9,73.21,19.47,26.47.56,53.05-4.85,73.87-16.37,10.14-5.61,13.81-18.37,8.2-28.5Z"/>
    <path d="M151.73,208.84c-24.35,0-48.9-5.63-67.27-16.77-1.06-.64-1.4-2.03-.76-3.09.64-1.06,2.03-1.4,3.09-.76,33.82,20.5,89.36,21.68,123.81,2.64,1.09-.6,2.46-.21,3.06.88.6,1.09.21,2.46-.88,3.06-16.99,9.4-38.93,14.04-61.04,14.04Z"/>
  </g>
</svg>