<?xml version="1.0" encoding="UTF-8"?>
<svg id="Capa_2" data-name="Capa 2" xmlns="http://www.w3.org/2000/svg" viewBox="0 0 191.69 342.14">
  <defs>
    <style>
      .cls-1 {
        fill: #1d1d1b;
      }
    </style>
  </defs>
  <g id="_ÎÓÈ_1" data-name="—ÎÓÈ_1">
    <path class="cls-1" d="M188.47,177.73h-7.19c-1.78,0-3.23-1.44-3.23-3.23v-7.19c0-1.78-1.45-3.23-3.23-3.23h-7.19c-1.78,0-3.23-1.44-3.23-3.23v-7.19c0-1.78-1.45-3.23-3.23-3.23h-7.19c-1.78,0-3.23-1.44-3.23-3.23v-7.19c0-1.78-1.44-3.23-3.23-3.23h-7.19c-1.78,0-3.23-1.44-3.23-3.23v-7.19c0-1.78-1.45-3.23-3.23-3.23h-7.19c-1.78,0-3.23-1.44-3.23-3.23v-7.19c0-1.78-1.44-3.23-3.23-3.23h-7.19c-1.78,0-3.23-1.44-3.23-3.23v-7.19c0-1.78-1.45-3.23-3.23-3.23h-7.19c-1.78,0-3.23-1.44-3.23-3.23v-7.19c0-1.78-1.44-3.23-3.23-3.23h-7.19c-1.78,0-3.23-1.44-3.23-3.23v-7.19c0-1.78-1.45-3.23-3.23-3.23h-7.19c-1.78,0-3.23-1.44-3.23-3.23v-7.19c0-1.78-1.44-3.23-3.23-3.23h-7.19c-1.78,0-3.23-1.44-3.23-3.23v-7.19c0-1.78-1.45-3.23-3.23-3.23h-7.19c-1.78,0-3.23-1.44-3.23-3.23v-7.19c0-1.78-1.44-3.23-3.23-3.23h-7.19c-1.78,0-3.23-1.44-3.23-3.23v-7.19c0-1.78-1.45-3.23-3.23-3.23h-7.19c-1.78,0-3.23-1.44-3.23-3.23V3.23c0-1.78-1.45-3.23-3.23-3.23H3.23C1.45,0,0,1.44,0,3.23v281.11c0,1.78,1.45,3.23,3.23,3.23h21.51c1.78,0,3.23-1.44,3.23-3.23v-7.19c0-1.78,1.44-3.23,3.23-3.23h7.19c1.78,0,3.23-1.44,3.23-3.23v-7.19c0-1.78,1.45-3.23,3.23-3.23h7.19c1.78,0,3.23-1.44,3.23-3.23v-7.19c0-1.78,1.44-3.23,3.23-3.23h20.15c1.78,0,3.23,1.44,3.23,3.23v21.17c0,1.78,1.45,3.23,3.23,3.23h7.19c1.78,0,3.23,1.44,3.23,3.23v20.83c0,1.78,1.45,3.23,3.23,3.23h7.19c1.78,0,3.23,1.44,3.23,3.23v20.83c0,1.78,1.44,3.23,3.23,3.23h6.85c1.78,0,3.23,1.44,3.23,3.23v6.85c0,1.78,1.44,3.23,3.23,3.23h22.2c1.78,0,3.23-1.44,3.23-3.23v-6.51c0-1.78,1.45-3.23,3.23-3.23h6.85c1.78,0,3.23-1.44,3.23-3.23v-36.52c0-1.78-1.45-3.23-3.23-3.23h-7.19c-1.78,0-3.23-1.44-3.23-3.23v-20.49c0-1.78-1.44-3.23-3.23-3.23h-7.19c-1.78,0-3.23-1.44-3.23-3.23v-20.83c0-1.78-1.45-3.23-3.23-3.23h-7.19c-1.78,0-3.23-1.44-3.23-3.23v-19.81c0-1.78,1.45-3.23,3.23-3.23h61.76c1.78,0,3.23-1.44,3.23-3.23v-21.52c0-1.78-1.45-3.23-3.23-3.23ZM177.37,188.15c0,1.78-1.44,3.23-3.23,3.23h-61.76c-1.78,0-3.23,1.44-3.23,3.23v35.5c0,1.78,1.44,3.23,3.23,3.23h7.19c1.78,0,3.23,1.44,3.23,3.23v20.83c0,1.78,1.45,3.23,3.23,3.23h7.19c1.78,0,3.23,1.44,3.23,3.23v20.83c0,1.78,1.44,3.23,3.23,3.23h7.19c1.78,0,3.23,1.44,3.23,3.23v33.45c0,1.78-1.44,3.23-3.23,3.23h-20.15c-1.78,0-3.23-1.44-3.23-3.23v-21.17c0-1.78-1.44-3.23-3.23-3.23h-7.19c-1.78,0-3.23-1.44-3.23-3.23v-20.83c0-1.78-1.45-3.23-3.23-3.23h-7.19c-1.78,0-3.23-1.44-3.23-3.23v-20.83c0-1.78-1.44-3.23-3.23-3.23h-7.19c-1.78,0-3.23-1.44-3.23-3.23v-20.49c0-1.78-1.45-3.23-3.23-3.23h-7.87c-1.78,0-3.23,1.44-3.23,3.23v7.19c0,1.78-1.45,3.23-3.23,3.23h-7.19c-1.78,0-3.23,1.44-3.23,3.23v7.19c0,1.78-1.44,3.23-3.23,3.23h-7.19c-1.78,0-3.23,1.44-3.23,3.23v7.19c0,1.78-1.45,3.23-3.23,3.23h-7.19c-1.78,0-3.23,1.44-3.23,3.23v7.19c0,1.78-1.44,3.23-3.23,3.23h-6.51c-1.78,0-3.23-1.44-3.23-3.23V31.56c0-1.78,1.45-3.23,3.23-3.23h6.51c1.78,0,3.23,1.45,3.23,3.23v7.19c0,1.78,1.45,3.23,3.23,3.23h7.19c1.78,0,3.23,1.45,3.23,3.23v7.19c0,1.78,1.45,3.23,3.23,3.23h7.19c1.78,0,3.23,1.45,3.23,3.23v7.19c0,1.78,1.45,3.23,3.23,3.23h7.19c1.78,0,3.23,1.44,3.23,3.23v7.19c0,1.78,1.45,3.23,3.23,3.23h7.19c1.78,0,3.23,1.44,3.23,3.23v7.19c0,1.78,1.45,3.23,3.23,3.23h7.19c1.78,0,3.23,1.44,3.23,3.23v7.19c0,1.78,1.45,3.23,3.23,3.23h7.19c1.78,0,3.23,1.44,3.23,3.23v7.19c0,1.78,1.44,3.23,3.23,3.23h7.19c1.78,0,3.23,1.44,3.23,3.23v7.19c0,1.78,1.45,3.23,3.23,3.23h7.19c1.78,0,3.23,1.44,3.23,3.23v7.19c0,1.78,1.44,3.23,3.23,3.23h7.19c1.78,0,3.23,1.44,3.23,3.23v7.19c0,1.78,1.45,3.23,3.23,3.23h7.19c1.78,0,3.23,1.44,3.23,3.23v7.19c0,1.78,1.44,3.23,3.23,3.23h7.19c1.78,0,3.23,1.44,3.23,3.23v6.51Z"/>
  </g>
</svg>