<?xml version="1.0" encoding="UTF-8"?>
<svg id="Capa_2" data-name="Capa 2" xmlns="http://www.w3.org/2000/svg" viewBox="0 0 125 124.32">
  <defs>
    <style>
      .cls-1 {
        fill: #d5cdba;
      }
    </style>
  </defs>
  <g id="OBJECTS">
    <polygon class="cls-1" points="62.5 42.62 75.57 0 70.17 44.25 99.44 10.63 76.51 48.86 116.92 30.05 80.43 55.64 125 54.9 81.25 63.44 122.27 80.89 78.83 70.9 109.2 103.52 73.58 76.72 88.06 118.88 66.42 79.91 62.5 124.32 58.58 79.91 36.94 118.88 51.42 76.72 15.8 103.52 46.17 70.9 2.73 80.89 43.75 63.44 0 54.9 44.57 55.64 8.08 30.05 48.49 48.86 25.56 10.63 54.83 44.25 49.43 0 62.5 42.62"/>
  </g>
</svg>