<?xml version="1.0" encoding="UTF-8" standalone="no"?>
<!DOCTYPE svg PUBLIC "-//W3C//DTD SVG 1.1//EN" "http://www.w3.org/Graphics/SVG/1.1/DTD/svg11.dtd">
<svg width="100%" height="100%" viewBox="0 0 559 486" version="1.1" xmlns="http://www.w3.org/2000/svg" xmlns:xlink="http://www.w3.org/1999/xlink" xml:space="preserve" xmlns:serif="http://www.serif.com/" style="fill-rule:evenodd;clip-rule:evenodd;stroke-linejoin:round;stroke-miterlimit:2;">
    <g transform="matrix(1,0,0,1,-2590.541291,-457.306766)">
        <path d="M3043.77,763.133C3043.35,764.061 3043.17,763.895 3042.19,763.995C3040.41,764.178 3038.62,764.507 3036.84,764.762C3033.27,765.274 3029.71,765.785 3026.14,766.297C3018.88,767.338 3011.61,768.379 3004.35,769.42C2991.67,771.238 2978.99,773.055 2966.31,774.872C2955.26,776.457 2944.21,778.041 2933.16,779.625C2928.25,780.329 2923.33,781.033 2918.42,781.737C2916.29,782.043 2914.57,783.007 2913.55,785.04C2912.59,786.946 2912.56,789.167 2913.63,791.035C2914.16,791.967 2914.94,792.777 2915.87,793.315C2917.15,794.057 2918.2,794.678 2919.35,795.668C2930.21,805.015 2941.11,814.306 2951.91,823.727C2961.79,832.356 2971.62,841.345 2982.97,848.048C2984.38,848.878 2985.81,849.67 2987.24,850.443C2987.83,850.759 2988.58,851.021 2989.1,851.428C2989.84,852.003 2990.23,852.981 2990.54,853.849C2991.73,857.121 2990.67,860.24 2988.14,862.533C2986.21,864.277 2982.68,866.037 2980.01,865.56C2978.39,865.27 2976.76,864.372 2975.23,863.773C2973.44,863.069 2971.65,862.366 2969.85,861.661C2956.33,856.359 2942.81,851.055 2929.3,845.753C2915.86,840.48 2902.41,835.208 2888.97,829.935C2882.1,827.24 2875.23,824.543 2868.36,821.847C2864.98,820.525 2861.63,819.105 2858.23,817.874C2855.95,817.052 2853.99,817.28 2852.24,818.94C2850.1,820.967 2849.74,823.063 2849.15,825.903C2848.42,829.409 2847.7,832.92 2847.01,836.434C2845.6,843.561 2844.65,850.866 2842.99,857.934C2842.36,860.59 2841.01,865.058 2837.74,865.536C2834.56,866.002 2832.24,861.743 2830.88,859.502C2829.04,856.462 2828.75,852.364 2828.01,848.917C2827.24,845.38 2826.47,841.846 2825.7,838.312C2824.12,831.131 2822.51,823.957 2820.9,816.784C2820.11,813.264 2819.31,809.744 2818.52,806.225C2817.83,803.159 2817.35,800.471 2815.52,797.877C2813.43,794.915 2809.89,794.389 2806.77,795.968C2805.32,796.703 2803.89,797.482 2802.45,798.239C2791.73,803.874 2781.01,809.51 2770.29,815.145C2769.95,815.323 2769.53,815.657 2769.15,815.744C2769.02,815.774 2769.23,815.524 2769.19,815.531C2768.62,815.625 2768.17,815.709 2767.65,815.941C2766.05,816.652 2764.53,817.791 2763.03,818.695C2760.5,820.214 2757.97,821.619 2755.37,822.989C2748.65,826.52 2741.94,830.046 2735.23,833.593C2729.2,836.78 2723.18,839.973 2717.16,843.155C2716.08,842.082 2715.97,839.839 2716.82,838.665C2717.27,838.052 2718.36,837.497 2718.94,837.049C2719.85,836.356 2720.76,835.664 2721.67,834.972C2724.91,832.512 2728.14,830.057 2731.38,827.607C2737.66,822.859 2743.95,818.131 2750.27,813.43C2756.8,808.562 2763.36,803.72 2769.93,798.899C2773.11,796.562 2776.3,794.231 2779.49,791.905C2781.82,790.207 2784.14,788.37 2784.18,785.21C2784.19,784.023 2783.7,782.971 2783.35,781.93C2782.95,780.762 2782.55,779.689 2781.65,778.79C2779.42,776.541 2775.22,776.429 2772.28,775.827C2764.51,774.235 2756.69,772.895 2748.85,771.727C2733.16,769.387 2717.37,767.724 2701.59,766.099C2692.74,765.187 2683.88,764.287 2675.04,763.276C2670.61,762.769 2666.18,762.233 2661.76,761.657C2660.31,761.469 2659.15,761.606 2658.48,760.106C2657.76,758.466 2658.18,757.086 2659.04,755.717C2694.54,752.166 2729.91,747.331 2765.07,741.25C2767.22,740.877 2769.38,740.499 2771.54,740.116C2773.14,739.832 2774.47,739.427 2775.6,738.19C2776.38,737.328 2776.94,736.22 2777.19,735.085C2777.5,733.633 2777.05,732.642 2776.76,731.271C2776.4,729.62 2776.56,728.353 2775.54,726.861C2774.38,725.173 2772.79,723.696 2771.43,722.175C2768.49,718.902 2765.54,715.641 2762.58,712.393C2756.57,705.804 2750.5,699.266 2744.38,692.782C2743,691.32 2741.62,689.862 2740.23,688.406C2738.85,686.949 2736.63,685.325 2735.72,683.52C2734.89,681.864 2734.48,679.208 2734.38,677.395C2734.27,675.319 2734.74,673.081 2736.66,671.961C2738.62,670.822 2740.19,672.232 2741.94,673.158C2743.96,674.224 2745.99,675.29 2748.01,676.356C2751.94,678.429 2755.87,680.502 2759.8,682.575C2762.9,684.215 2766.01,685.855 2769.12,687.494C2776.32,691.293 2783.52,695.092 2790.73,698.89C2793.25,700.22 2795.92,701.988 2798.9,701.282C2801.53,700.66 2803.48,698.491 2803.83,695.826C2804.09,693.837 2803.94,691.723 2803.97,689.717C2804.01,687.396 2804.04,685.074 2804.08,682.753C2804.37,664.599 2804.68,646.447 2805.03,628.294C2805.2,619.194 2805.38,610.077 2805.16,600.976C2804.93,592.099 2803.98,583.307 2802.99,574.492C2802,565.713 2801.41,556.958 2801.47,548.12C2801.48,545.866 2801.12,543.098 2802.07,541.011C2802.89,539.211 2804.15,537.261 2805.89,536.238C2807.77,535.141 2809.71,535.964 2811.23,537.245C2813.16,538.863 2813.35,541.055 2813.93,543.396C2818.28,560.851 2822.01,578.417 2825.68,596.022C2829.29,613.325 2833.22,630.596 2839.21,647.253C2842.21,655.585 2845.44,663.834 2848.01,672.314C2850.59,680.82 2852.77,689.445 2854.86,698.081C2856.91,706.603 2858.85,715.154 2860.87,723.683C2861.37,725.779 2861.87,727.872 2862.38,729.967C2862.78,731.674 2863.03,733.422 2864.16,734.822C2865.96,737.046 2869.14,737.778 2871.83,736.932C2875.4,735.809 2875.89,732.949 2876.44,729.659C2877.18,725.258 2877.93,720.862 2878.71,716.469C2880.27,707.683 2881.91,698.912 2883.65,690.159C2885.41,681.259 2887.26,672.378 2889.22,663.517C2890.11,659.446 2890.66,655.098 2892.69,651.41C2893.44,650.046 2894.41,648.466 2895.96,647.922C2897.56,647.361 2900.21,648.367 2901.06,649.889C2901.42,650.535 2901.39,651.863 2901.49,652.622C2901.65,653.751 2901.8,654.878 2901.96,656.006C2902.29,658.294 2902.62,660.58 2902.95,662.865C2903.61,667.308 2904.29,671.748 2904.99,676.185C2906.41,685.185 2907.92,694.172 2909.47,703.149C2911.02,712.036 2912.62,720.913 2914.24,729.786C2915.05,734.238 2915.87,738.69 2916.69,743.141C2917.11,745.428 2917.49,747.728 2917.96,750.008C2918.29,751.659 2918.87,752.952 2920.24,754.014C2922.98,756.143 2926.97,755.701 2930.22,755.78C2934.73,755.889 2939.23,755.999 2943.74,756.108C2952.75,756.327 2961.77,756.546 2970.78,756.765C2989,757.208 3007.22,757.651 3025.44,758.093C3029.63,758.195 3033.83,758.297 3038.03,758.399C3039.17,758.427 3040.31,758.455 3041.46,758.482C3041.97,758.495 3042.96,758.364 3043.15,758.49C3044.01,759.086 3044.15,760.77 3044.14,761.813C3044.1,762.326 3043.93,762.799 3043.77,763.133ZM3145.96,750.804C3145.86,750.692 3145.72,750.593 3145.54,750.517C3145.41,750.442 3145.29,750.4 3145.16,750.372C3139.73,748.145 3134.01,747.886 3128.19,747.857C3121.31,747.824 3114.43,747.596 3107.55,747.429C3093.29,747.082 3079.02,746.736 3064.76,746.389C3035.81,745.686 3006.85,744.982 2977.9,744.279C2961.77,743.887 2945.64,743.495 2929.51,743.104C2922.28,703.955 2915.08,664.503 2910.73,625.481C2909.57,615.054 2908.6,604.604 2907.86,594.138C2907.62,590.809 2908.04,586.779 2905.25,584.374C2903.07,582.5 2899.8,582.446 2897.49,584.089C2894.35,586.325 2894,591.399 2893.06,594.832C2891.73,599.732 2890.42,604.64 2889.14,609.554C2886.57,619.384 2884.12,629.243 2881.79,639.129C2876.9,659.792 2872.55,680.574 2868.67,701.448C2865.29,687.166 2861.75,672.899 2856.95,659.023C2854.27,651.309 2851.27,643.716 2848.75,635.95C2846.2,628.118 2844.08,620.159 2842.18,612.146C2838.34,595.939 2835.33,579.548 2831.68,563.3C2828.01,547.013 2823.92,530.825 2819.61,514.699C2815.35,498.783 2810.87,482.926 2806.38,467.075C2805.67,464.592 2805.32,461.421 2803.55,459.423C2801.95,457.63 2799.36,456.884 2797.06,457.544C2795.01,458.129 2793.41,459.766 2792.78,461.786C2791.67,465.347 2792.19,469.841 2792.02,473.565C2791.25,490.535 2790.48,507.504 2789.62,524.469C2788.76,541.207 2788.55,557.7 2790.34,574.385C2791.31,583.416 2792.31,592.422 2792.52,601.511C2792.73,610.865 2792.55,620.221 2792.34,629.573C2791.92,648.026 2791.68,666.482 2791.39,684.937C2757.65,667.143 2723.92,649.35 2690.19,631.556C2685.44,629.049 2680.68,626.542 2675.93,624.035C2674.93,623.507 2673.9,622.855 2672.83,622.485C2669.62,621.385 2666.03,622.894 2664.78,626.094C2663.07,630.459 2666.4,633.096 2669.28,635.793C2673.58,639.829 2677.86,643.89 2682.11,647.976C2690.62,656.146 2699.04,664.413 2707.36,672.777C2725.62,691.124 2743.38,709.95 2760.69,729.186C2742.94,732.243 2725.15,735.041 2707.3,737.416C2686.58,740.178 2665.81,742.52 2644.99,744.412C2634.41,745.373 2623.83,746.219 2613.24,746.951C2607.79,747.328 2602.25,747.4 2596.82,747.996C2594.06,748.299 2591.59,749.762 2590.78,752.571C2589.93,755.558 2591.42,758.637 2594.14,760.024C2598.22,762.111 2603.45,763.001 2607.87,764.189C2617.78,766.851 2627.83,768.975 2637.94,770.74C2658.31,774.296 2678.89,776.423 2699.44,778.538C2721.26,780.782 2743.08,783.081 2764.63,787.212C2727.79,814.231 2691.44,841.91 2655.64,870.29C2653.34,872.11 2651.05,873.933 2648.75,875.758C2647.21,876.986 2645.45,878.035 2644.73,879.958C2643.54,883.177 2645.08,886.613 2648.13,888.058C2652.09,889.932 2657.09,886.516 2660.7,884.996C2665.86,882.827 2670.97,880.546 2676.04,878.176C2696.8,868.467 2716.95,857.474 2737.24,846.812C2760.32,834.676 2783.41,822.539 2806.49,810.403C2814.27,844.842 2821.98,879.313 2828.17,914.08C2828.93,918.319 2829.66,922.563 2830.37,926.811C2830.72,928.935 2831.07,931.06 2831.41,933.186C2831.73,935.177 2831.74,937.596 2832.54,939.456C2834.61,944.266 2841.71,944.128 2843.95,939.589C2845.39,936.66 2845.12,932.572 2845.46,929.391C2845.92,925.148 2846.4,920.907 2846.92,916.669C2847.96,908.035 2849.11,899.416 2850.38,890.812C2853.27,871.239 2856.75,851.763 2860.74,832.385C2915.42,853.833 2970.16,875.131 3024.78,896.742C3037.61,901.819 3050.4,907.167 3063.8,910.59C3068.08,911.681 3073.79,913.22 3075.87,907.851C3078.04,902.223 3072.66,899.938 3068.78,897.599C3045.54,883.567 3029.96,859.887 3006.33,846.283C2999.87,842.563 2993.04,839.534 2986.76,835.509C2980.53,831.523 2974.85,826.791 2969.25,821.991C2957.65,812.069 2946.12,802.074 2934.57,792.113C2996.03,783.302 3057.5,774.491 3118.96,765.68C3123.32,765.055 3127.68,764.43 3132.04,763.805C3134.22,763.492 3136.4,763.18 3138.58,762.867C3140.53,762.588 3142.89,762.607 3144.73,761.898C3149.36,760.119 3149.81,753.506 3145.96,750.804Z" style="fill-rule:nonzero;"/>
    </g>
</svg>
