<?xml version="1.0" encoding="UTF-8" standalone="no"?>
<!DOCTYPE svg PUBLIC "-//W3C//DTD SVG 1.1//EN" "http://www.w3.org/Graphics/SVG/1.1/DTD/svg11.dtd">
<svg width="100%" height="100%" viewBox="0 0 580 622" version="1.1" xmlns="http://www.w3.org/2000/svg" xmlns:xlink="http://www.w3.org/1999/xlink" xml:space="preserve" xmlns:serif="http://www.serif.com/" style="fill-rule:evenodd;clip-rule:evenodd;stroke-linejoin:round;stroke-miterlimit:2;">
    <g transform="matrix(1,0,0,1,-3114.571898,-371.071311)">
        <path d="M3637.03,761.36C3636.06,763.438 3634.16,764.652 3632.15,765.612C3629.54,766.858 3627.47,766.78 3624.62,766.599C3619.08,766.246 3613.54,765.862 3608.01,765.454C3596.94,764.64 3585.89,763.734 3574.83,762.882C3552.57,761.166 3530.3,759.569 3508.01,758.403C3496.92,757.823 3485.83,757.342 3474.73,756.94C3469.02,756.733 3463.31,756.548 3457.6,756.385C3455.25,756.318 3452.91,756.267 3450.56,756.194C3448.71,756.137 3446.97,755.718 3445.17,756.383C3441.98,757.562 3440.04,761.177 3441.25,764.436C3442.04,766.542 3443.43,768.551 3444.48,770.536C3445.75,772.951 3447,775.381 3448.22,777.824C3452.73,786.875 3456.87,796.111 3460.72,805.463C3468.96,825.509 3475.96,846.042 3482.83,866.591C3486.33,877.04 3489.79,887.501 3493.35,897.926C3495.09,903.011 3497.4,908.135 3498.73,913.334C3499.16,915.007 3499.36,916.959 3499.42,918.701C3499.48,920.417 3499.52,922.714 3497.28,922.319C3494.86,921.892 3492.61,919.872 3490.74,918.356C3488.44,916.479 3487,914.46 3485.45,911.945C3482.66,907.395 3479.8,902.89 3476.84,898.441C3470.86,889.423 3464.58,880.606 3458.29,871.796C3445.5,853.866 3432.77,835.896 3420.01,817.938C3413.65,808.974 3407.28,800.01 3400.84,791.1C3399.29,788.966 3397.75,786.836 3396.19,784.709C3394.53,782.422 3392.4,780.121 3391.17,777.559C3389.72,774.508 3387.03,772.654 3383.46,773.001C3380.21,773.316 3377.29,776.388 3377.43,779.72C3377.46,780.513 3377.8,781.211 3377.83,781.979C3377.88,783.158 3377.42,784.538 3377.2,785.695C3376.66,788.626 3376.12,791.56 3375.6,794.495C3373.67,805.31 3371.91,816.156 3370.32,827.025C3367.12,848.835 3364.59,870.743 3362.76,892.709C3362.52,895.543 3362.3,898.378 3362.09,901.214C3361.99,902.462 3361.9,903.71 3361.82,904.958C3361.71,906.514 3361.9,908.518 3361.26,909.965C3360.36,912.015 3357.87,914.218 3355.6,914.427C3353.39,914.631 3353.6,913.644 3353.42,911.884C3353.27,910.405 3353.11,908.925 3352.97,907.444C3351.87,896.412 3350.97,885.362 3350.11,874.309C3348.42,852.475 3346.91,830.621 3344.54,808.846C3343.94,803.309 3343.29,797.778 3342.57,792.256C3342.25,789.802 3341.91,787.349 3341.56,784.898C3341.2,782.365 3341.18,779.388 3340.33,776.975C3339.19,773.714 3335.35,772.74 3332.27,773.275C3330.54,773.575 3329.32,774.47 3328.05,775.625C3325.86,777.611 3323.74,779.672 3321.6,781.7C3305.82,796.633 3290.26,811.794 3274.94,827.196C3267.24,834.934 3259.68,842.8 3252.03,850.583C3250.36,852.276 3247.3,852.947 3245.15,851.653C3243.26,850.518 3242.75,848.138 3242.58,846.094C3242.34,843.357 3243.51,841.125 3244.52,838.639C3245.56,836.051 3246.61,833.467 3247.67,830.884C3255.58,811.58 3263.83,792.419 3272.41,773.402C3276.95,763.339 3281.58,753.317 3286.3,743.337C3287.37,741.092 3288.43,738.849 3289.5,736.608C3290.68,734.154 3292.28,731.614 3293.07,729.009C3293.35,728.094 3293.36,727.175 3293.75,726.31C3294.04,725.668 3294.42,725.13 3294.6,724.43C3294.98,722.969 3294.86,721.361 3294.17,720.009C3293.38,718.47 3292.06,717.79 3290.56,717.064C3288.23,715.936 3285.85,714.91 3283.43,713.97C3278.75,712.148 3273.94,710.657 3269.08,709.382C3259.09,706.759 3248.89,704.983 3238.8,702.794C3217.29,698.13 3196.43,690.996 3176.03,682.792C3173.85,681.915 3171.68,681.027 3169.51,680.128C3167.85,679.443 3165.91,678.899 3164.37,677.971C3162.8,677.03 3162.95,674.59 3163.94,672.967C3186.04,673.812 3208.13,675.109 3230.11,677.613C3239.83,678.72 3249.52,680.081 3259.17,681.747C3264.72,682.706 3270.25,683.763 3275.76,684.927C3278.21,685.445 3280.66,685.984 3283.1,686.545C3285.12,687.009 3286.89,687.378 3288.9,686.686C3292.36,685.498 3294.01,682.133 3292.88,678.662C3291.14,673.364 3288.54,668.213 3286.39,663.063C3282.09,652.704 3277.8,642.336 3273.54,631.958C3264.9,610.908 3256.36,589.818 3247.92,568.688C3245.83,563.466 3243.75,558.242 3241.68,553.013C3239.61,547.764 3237.88,542.65 3236.52,537.17C3235.18,531.763 3233.94,526.328 3232.83,520.869C3231.77,515.685 3230.3,510.241 3230.07,504.94C3229.86,500.264 3232.59,492.891 3238.18,497.444C3241.52,500.163 3243.97,504.434 3246.52,507.859C3249.68,512.105 3251.75,517.311 3254.27,521.971C3256.9,526.845 3259.64,531.659 3262.45,536.428C3273.74,555.535 3285.94,574.119 3297.89,592.816C3310.08,611.897 3322.21,631.018 3334.37,650.125C3337.42,654.917 3340.47,659.709 3343.51,664.5C3344.86,666.621 3346.18,668.771 3347.56,670.865C3348.6,672.43 3349.72,674.556 3351.3,675.652C3353.97,677.506 3357.82,676.568 3360,674.379C3361.11,673.263 3361.69,671.944 3361.63,670.368C3361.53,667.625 3360.94,664.805 3360.6,662.08C3357.81,639.703 3355.34,617.283 3353.28,594.828C3353,591.892 3352.63,589.096 3354.23,586.44C3356.29,583.018 3359.28,583.814 3362.17,585.636C3364.44,587.063 3366.6,588.608 3367.66,591.097C3368.78,593.69 3369.65,596.408 3370.65,599.05C3374.63,609.647 3378.63,620.234 3382.68,630.806C3386.71,641.323 3390.42,652.063 3394.87,662.405C3396.36,665.853 3399.28,667.261 3402.92,666.683C3405.04,666.345 3406.46,665.081 3408,663.685C3410.18,661.708 3412.37,659.735 3414.55,657.768C3447.72,627.953 3481.93,599.301 3517.1,571.888C3520.3,569.394 3525.66,564.848 3529.94,567.914C3531.76,569.216 3532.69,571.536 3532.97,573.683C3533.41,576.923 3531.69,579.264 3530.14,581.944C3524.6,591.53 3519.06,601.116 3513.52,610.703C3504.87,625.681 3496.21,640.66 3487.55,655.639C3482.56,664.278 3477.57,672.918 3472.58,681.558C3471.27,683.814 3469.82,686.039 3468.64,688.368C3464.3,696.977 3478.63,699.743 3483.81,701.565C3526.09,716.432 3568.41,731.206 3610.66,746.172C3615.59,747.921 3620.52,749.69 3625.43,751.515C3628.03,752.482 3630.62,753.464 3633.21,754.466C3634.52,754.976 3636,755.265 3636.72,756.607C3637.48,758.021 3637.51,759.876 3637.03,761.36ZM3691.7,769.735C3691.64,769.661 3691.57,769.589 3691.46,769.521C3668.5,754.175 3642.64,744.189 3616.74,734.993C3588.18,724.852 3559.57,714.875 3530.98,704.826C3515.15,699.263 3499.33,693.697 3483.5,688.132C3490.83,675.443 3498.17,662.754 3505.5,650.064C3517.2,629.81 3528.91,609.556 3540.61,589.302C3550.58,572.057 3560.54,554.812 3570.51,537.566C3572.01,534.969 3573.61,532.214 3571.76,529.23C3570.18,526.666 3566.94,525.945 3564.17,526.737C3560.07,527.911 3556.04,530.415 3552.31,532.445C3535.69,541.503 3520.68,553.297 3505.85,564.967C3474.43,589.682 3443.65,615.188 3413.79,641.774C3410.6,644.613 3407.43,647.467 3404.26,650.323C3387.62,607.336 3371.42,564.18 3355.71,520.842C3353.72,515.364 3351.75,509.884 3349.78,504.401C3348.82,501.754 3347.88,499.107 3346.93,496.459C3346.27,494.618 3345.76,492.708 3344.25,491.372C3341.96,489.351 3338.54,489.378 3336.05,491.03C3332.21,493.577 3333.31,498.161 3333.51,502.123C3334.67,525.159 3336.18,548.178 3338.07,571.166C3340.02,595.051 3342.4,618.898 3345.15,642.704C3322.39,607.057 3299.14,571.658 3277.18,535.525C3271.47,526.14 3266.14,516.563 3261.09,506.809C3259.89,504.489 3258.7,502.165 3257.51,499.84C3256.2,497.288 3255.22,494.781 3254.16,492.147C3253.55,490.602 3252.29,489.538 3251.47,488.124C3250.11,485.811 3248.94,483.374 3247.65,481.024C3237.26,462.104 3224.64,444.706 3212,427.255C3205.41,418.156 3198.81,409.062 3192.21,399.969C3188.97,395.506 3185.73,391.042 3182.5,386.578C3179.35,382.235 3176.43,377.46 3172.91,373.41C3168.66,368.514 3159.41,371.794 3161.15,378.721C3162.5,384.142 3165.11,389.524 3167.05,394.772C3168.95,399.928 3170.86,405.083 3172.78,410.236C3188.32,452.028 3204.24,493.675 3220.56,535.171C3236.86,576.652 3253.55,617.982 3270.63,659.154C3272.45,663.545 3274.27,667.933 3276.1,672.321C3230.16,663.051 3183.23,660.97 3136.48,659.768C3133.63,659.694 3130.77,659.624 3127.92,659.555C3125.26,659.49 3122.18,658.96 3119.59,659.621C3116.63,660.375 3114.42,662.933 3114.58,666.04C3114.83,670.718 3119.55,671.802 3123.15,673.442C3128.63,675.941 3134.11,678.431 3139.61,680.889C3161.4,690.629 3183.46,699.909 3206.25,707.077C3218.72,711.001 3231.39,714.025 3244.19,716.665C3256.32,719.165 3268.87,721.28 3280.3,726.255C3258.54,771.472 3238.59,817.555 3220.57,864.387C3218.31,870.269 3216.07,876.163 3213.87,882.068C3211.8,887.616 3209.23,893.239 3207.69,898.956C3205.91,905.558 3214.68,908.241 3218.87,904.232C3223.48,899.829 3227.57,894.731 3231.91,890.058C3236.14,885.5 3240.39,880.959 3244.66,876.437C3253.19,867.393 3261.81,858.423 3270.5,849.527C3289.72,829.852 3309.34,810.57 3329.3,791.642C3337.05,846.054 3336.82,901.322 3346.08,955.573C3347.25,962.444 3348.57,969.29 3350.07,976.098C3350.79,979.395 3351.46,982.738 3352.37,985.99C3352.94,988.025 3354.04,989.628 3356.04,990.486C3359.73,992.068 3363.69,989.857 3365.16,986.359C3367.72,980.26 3368.96,973.244 3370.07,966.761C3372.42,953.025 3373,939.039 3373.71,925.145C3374.44,911.094 3375.4,897.067 3376.7,883.057C3379.39,853.967 3383.35,825.017 3388.48,796.259C3408.02,823.222 3427.11,850.513 3446.46,877.613C3456.19,891.242 3465.74,904.962 3474.53,919.223C3478.75,926.079 3482.99,932.907 3487.84,939.345C3492.9,946.062 3498.53,952.33 3504.12,958.6C3509.87,965.041 3515.69,971.414 3521.49,977.802C3524.16,980.742 3526.83,983.688 3529.49,986.641C3531.36,988.719 3533.15,991.661 3536.02,992.375C3540.42,993.473 3545.43,989.816 3544.45,985.034C3543.81,981.865 3541.28,978.806 3539.77,975.975C3537.73,972.149 3535.76,968.284 3533.86,964.387C3519.23,934.427 3508.73,902.679 3498.2,871.113C3486.61,836.355 3474.88,801.507 3458.28,768.759C3491.69,769.746 3525.08,771.449 3558.41,773.975C3592.4,776.551 3626.36,779.788 3660.45,780.699C3665.09,780.823 3669.72,780.907 3674.36,780.945C3678.91,780.981 3683.96,781.579 3688.46,780.843C3694.24,779.899 3696.11,773.447 3691.7,769.735Z" style="fill-rule:nonzero;"/>
    </g>
</svg>
