<?xml version="1.0" encoding="UTF-8" standalone="no"?>
<!DOCTYPE svg PUBLIC "-//W3C//DTD SVG 1.1//EN" "http://www.w3.org/Graphics/SVG/1.1/DTD/svg11.dtd">
<svg width="100%" height="100%" viewBox="0 0 837 910" version="1.1" xmlns="http://www.w3.org/2000/svg" xmlns:xlink="http://www.w3.org/1999/xlink" xml:space="preserve" xmlns:serif="http://www.serif.com/" style="fill-rule:evenodd;clip-rule:evenodd;stroke-linejoin:round;stroke-miterlimit:2;">
    <g transform="matrix(1,0,0,1,-311.855086,-245.157449)">
        <path d="M1054.67,480.995C1042.87,487.376 1031.26,494.083 1019.34,500.26C1006.99,506.662 994.497,512.785 982.016,518.927C956.836,531.319 931.745,543.853 906.822,556.755C882.443,569.376 858.081,582.067 833.216,593.711C810.079,604.545 786.554,615.05 765.851,630.232C761.938,633.101 757.534,635.97 759.942,641.287C762.215,646.303 768.852,649.328 773.377,652.265C784.226,659.309 795.488,665.699 806.911,671.761C831.328,684.72 856.253,696.814 881.127,708.867C905.418,720.637 930.342,731.432 953.4,745.555C965.257,752.818 976.746,760.734 988.293,768.477C994.053,772.34 999.8,776.223 1005.53,780.127C1010.97,783.832 1017.14,787.364 1019.85,793.742C1020.33,794.888 1020.55,796.055 1020.28,797.3C1019.85,799.286 1018.99,799.631 1017.12,799.379C1013.58,798.9 1009.9,797.365 1006.46,796.397C999.561,794.458 992.668,792.502 985.778,790.535C972.444,786.728 959.122,782.876 945.8,779.027C918.926,771.262 892.017,763.64 865.07,756.133C838.153,748.634 811.303,740.818 784.802,731.946C772.056,727.678 759.605,722.737 747.032,718.002C740.727,715.627 734.341,713.434 727.793,711.825C725.147,711.175 722.255,710.945 719.816,709.76C717.801,708.781 715.94,708.474 713.709,708.931C701.876,711.353 705.367,728.694 705.483,737.354C705.667,751.052 704.598,764.776 704.528,778.482C704.386,806.501 706.361,834.448 707.77,862.415C709.181,890.447 708.853,918.442 709.167,946.493C709.324,960.571 709.926,974.614 710.917,988.657C711.159,992.082 711.412,995.507 711.66,998.932C711.869,1001.83 712.139,1006.75 708.75,1008.03C706.109,1009.02 703.338,1006.35 701.732,1004.4C699.455,1001.63 698.824,998.962 698.153,995.52C687.401,940.419 678.86,885.07 672.21,829.333C668.958,802.071 665.798,774.685 661.514,747.565C659.367,733.972 656.843,720.187 652.49,707.102C651.237,703.335 649.278,699.945 644.955,699.596C640.196,699.212 637.325,701.806 635.012,705.54C628.246,716.465 618.829,725.6 611.157,735.879C603.044,746.749 595.731,758.205 587.941,769.305C572.132,791.828 554.568,813.176 536.955,834.298C519.211,855.577 501.074,876.523 483.09,897.598C465.087,918.696 447.499,940.138 429.635,961.353C427.266,964.167 425.175,966.671 421.835,968.397C420.039,969.325 417.821,970.575 415.872,969.133C414.598,968.19 414.204,966.817 414.328,965.358C414.847,959.259 419.852,953.054 422.866,947.998C429.585,936.723 434.883,924.741 440.402,912.856C443.168,906.898 446.008,900.97 449.151,895.2C452.289,889.44 455.782,883.913 458.534,877.947C461.386,871.764 465.025,865.856 468.32,859.893C471.643,853.879 474.974,847.871 478.318,841.87C505.602,792.892 533.575,744.192 564.138,697.171C571.349,686.077 578.986,675.155 585.094,663.394C588.021,657.76 590.122,651.876 592.532,646.036C593.591,643.47 593.245,641.905 591.963,639.477C590.409,636.535 588.821,633.612 587.254,630.677C580.799,618.587 574.424,606.445 568.684,593.996C563.054,581.786 558.312,569.192 553.07,556.814C542.249,531.267 530.509,506.113 518.156,481.272C511.981,468.85 505.643,456.508 499.148,444.25C495.866,438.055 492.545,431.881 489.242,425.698C487.743,422.892 486.247,420.085 484.758,417.274C483.249,414.425 480.715,411.189 481.142,407.814C481.28,406.721 481.558,405.293 482.285,404.417C483.371,403.109 485.057,403.364 486.617,403.652C490.228,404.318 492.443,406.328 494.953,408.796C499.848,413.611 504.783,418.383 509.716,423.158C519.43,432.563 529.136,441.983 538.487,451.752C557.039,471.133 573.254,492.502 590.633,512.9C599.53,523.342 608.861,533.395 617.983,543.637C621.501,547.588 624.586,551.688 627.714,555.95C629.396,558.239 631.112,560.528 633.031,562.626C634.221,563.928 635.549,565.047 636.569,566.495C637.392,567.663 637.925,568.667 639.252,569.388C642.596,571.204 647.771,569.938 650.317,567.233C652.192,565.24 652.891,562.247 653.865,559.763C655.134,556.523 656.409,553.285 657.688,550.05C662.886,536.904 668.162,523.789 673.519,510.707C684.016,485.072 694.826,459.567 705.942,434.194C711.615,421.246 717.367,408.333 723.196,395.455C728.573,383.578 733.099,370.159 741.908,360.306C745.89,355.851 751.933,351.847 757.689,355.75C759.849,357.214 761.382,359.382 762.374,361.769C763.819,365.245 763.353,368.5 762.978,372.153C761.562,385.931 760.17,399.712 758.804,413.495C756.027,441.518 753.354,469.551 750.786,497.593C749.537,511.237 748.312,524.882 747.111,538.53C746.716,543.025 744.769,549.758 749.167,552.973C752.156,555.158 756.361,554.132 759.42,552.371C759.772,552.202 760.095,552.013 760.363,551.821C761.735,550.835 763.192,550.069 764.734,549.378C768.85,547.747 773.091,546.521 777.322,545.234C782.2,543.751 786.93,541.901 791.76,540.28C801.764,536.923 812.093,534.605 822.433,532.561C842.069,528.681 861.299,523.329 880.198,516.739C899.598,509.975 918.448,501.769 937.994,495.401C947.921,492.167 957.974,489.297 968.148,486.946C978.28,484.604 988.504,483.226 998.794,481.82C1010.45,480.229 1021.84,477.704 1033.209,474.707C1038.819,473.229 1044.52,471.166 1050.23,470.18C1052.31,469.821 1054.37,470.729 1055.7,472.557C1057.69,475.284 1056.23,478.471 1054.67,480.995ZM1140.09,432.528C1139.7,432.547 1139.26,432.619 1138.74,432.777C1126.69,436.433 1115.56,442.602 1103.44,445.991C1090.91,449.494 1077.91,451.137 1065.18,453.726C1052.94,456.215 1040.939,459.622 1028.86,462.787C1015.69,466.241 1002.57,468.624 989.067,470.318C937.658,476.767 891.973,502.278 842.317,515.152C828.47,518.742 814.335,521.025 800.473,524.535C793.576,526.281 786.9,528.554 780.198,530.922C774.568,532.911 768.813,534.519 763.183,536.497C770.801,450.07 779.383,363.73 788.971,277.5C789.556,272.242 790.144,266.985 790.736,261.729C791.138,258.161 793.044,252.214 791.526,248.77C789.24,243.585 781.029,244.558 777.71,248.067C775.071,250.857 773.597,255.563 771.888,258.951C769.247,264.187 766.619,269.429 764.005,274.678C759.298,284.125 754.634,293.594 750.013,303.084C731.275,341.572 713.248,380.406 695.941,419.558C677.069,462.252 659.068,505.329 641.904,548.737C639.563,545.668 637.385,542.453 634.975,539.459C630.441,533.825 625.456,528.552 620.6,523.197C610.486,512.048 600.719,500.647 591.188,488.996C572.727,466.426 553.886,444.628 533.035,424.21C512.177,403.785 490.843,383.839 472.073,361.414C464.093,351.88 456.76,341.84 449.062,332.081C444.975,326.899 441.729,321.163 438.113,315.656C435.329,311.415 432.449,306.406 427.269,304.846C424.033,303.872 419.411,304.956 417.082,307.476C413.369,311.491 416.94,316.43 418.805,320.524C421.695,326.863 425.02,332.991 428.022,339.277C431.106,345.733 433.516,352.454 435.944,359.176C440.791,372.6 446.667,385.53 453.531,398.045C460.526,410.801 469.173,422.59 476.161,435.307C490.41,461.237 503.736,487.726 516.412,514.456C529.313,541.659 540.37,569.551 552.404,597.122C558.389,610.834 565.439,624.037 572.527,637.203C574.351,640.592 576.634,643.162 574.866,646.875C573.108,650.568 570.516,654.033 568.388,657.53C564.53,663.871 560.668,670.209 556.807,676.549C540.899,702.663 524.997,728.782 509.356,755.058C478.539,806.83 449.467,859.532 420.905,912.574C406.314,939.669 391.775,966.793 377.004,993.791C369.799,1006.96 362.55,1020.1 354.92,1033.03C347.487,1045.63 339.422,1057.85 332.073,1070.49C328.1,1077.33 324.528,1084.39 320.291,1091.07C318.556,1093.81 316.642,1096.34 314.662,1098.9C313.107,1100.91 311.339,1103.14 311.996,1105.88C312.991,1110.04 317.912,1110.85 321.434,1109.92C326.569,1108.57 329.232,1103.39 332.346,1099.49C350.993,1076.16 370.176,1053.26 389.497,1030.49C429.045,983.874 468.195,936.92 507.854,890.399C527.413,867.455 547.083,844.604 566.054,821.168C584.743,798.082 602.156,774.293 618.921,749.788C625.405,740.309 632.974,731.816 640.1,722.9C646.792,749.358 649.352,776.858 652.746,803.869C656.5,833.739 659.758,863.66 664.198,893.44C668.65,923.308 673.701,953.089 679.265,982.77C684.814,1012.38 691.875,1041.74 697.19,1071.37C699.617,1084.9 700.293,1098.66 702.04,1112.28C702.911,1119.06 704.044,1125.82 705.787,1132.44C707.448,1138.75 709.442,1146.25 713.093,1151.75C715.38,1155.18 719.724,1155.46 723.347,1154.02C728.196,1152.09 729.305,1146.95 729.902,1142.23C730.715,1135.8 730.057,1129.27 729.85,1122.83C729.62,1115.63 729.812,1108.44 730.025,1101.24C730.908,1071.4 730.396,1041.72 728.629,1011.92C727.733,996.807 726.346,981.717 725.713,966.592C725.091,951.71 725.088,936.813 725.088,921.921C725.09,862.205 718.945,802.764 721.446,743.035C721.706,736.818 720.949,730.585 721.098,724.374C732.898,727.313 744.197,732.179 755.539,736.467C768.177,741.246 780.961,745.547 793.832,749.647C820.461,758.129 847.355,765.594 874.271,773.092C900.89,780.507 927.426,788.217 953.974,795.879C980.235,803.458 1006.71,810.379 1032.91,818.141C1045.829,821.967 1058.15,827.436 1070.62,832.451C1076.58,834.845 1082.58,837.139 1088.7,839.073C1093.43,840.565 1099.17,842.97 1104.17,842.592C1110.23,842.137 1116.07,835.575 1110.04,830.74C1105.17,826.83 1099.18,823.824 1093.88,820.517C1087.49,816.532 1081.08,812.577 1074.71,808.577C1052.03,794.356 1030.31,778.741 1008.13,763.765C986.153,748.926 964.259,733.739 940.648,721.582C913.513,707.613 885.681,694.928 858.322,681.395C831.098,667.929 803.586,654.709 778.392,637.624C801.89,621.273 828.584,610.354 854.209,597.868C881.925,584.363 909.147,569.896 936.611,555.895C964.17,541.845 992.09,528.524 1019.68,514.545C1033.24,507.676 1046.5,500.316 1059.78,492.925C1072.22,486.003 1085.08,480.051 1097.88,473.841C1111.26,467.346 1124.52,460.345 1136.37,451.288C1140,448.516 1148.52,443.529 1148.36,438.196C1148.22,433.707 1143.92,432.039 1140.09,432.528Z" style="fill-rule:nonzero;"/>
    </g>
</svg>
