<?xml version="1.0" encoding="UTF-8"?>
<svg id="Capa_2" data-name="Capa 2" xmlns="http://www.w3.org/2000/svg" viewBox="0 0 125 125">
  <defs>
    <style>
      .cls-1 {
        fill: #d14d87;
      }
    </style>
  </defs>
  <g id="OBJECTS">
    <path class="cls-1" d="M119.23,5.77l-25.85,18.59c-4.62,3.33-9.65,5.82-14.88,7.47-5.36,1.7-11.07-1.71-11.98-7.25,0-.03-.01-.07-.02-.1L62.5,0l-4,24.48s-.01.07-.02.1c-.92,5.54-6.63,8.95-11.98,7.25-5.23-1.66-10.26-4.15-14.88-7.47L5.77,5.77l18.59,25.85c3.33,4.62,5.82,9.65,7.47,14.88,1.7,5.36-1.71,11.07-7.25,11.98-.03,0-.07.01-.1.02L0,62.5l24.48,4s.07.01.1.02c5.54.92,8.95,6.63,7.25,11.98-1.66,5.23-4.15,10.26-7.47,14.88l-18.59,25.85,25.85-18.59c4.62-3.33,9.65-5.82,14.88-7.47,5.36-1.7,11.07,1.71,11.98,7.25,0,.03.01.07.02.1l4,24.48,4-24.48s.01-.07.02-.1c.92-5.54,6.63-8.95,11.98-7.25,5.23,1.66,10.26,4.15,14.88,7.47l25.85,18.59-18.59-25.85c-3.33-4.62-5.82-9.65-7.47-14.88-1.7-5.36,1.71-11.07,7.25-11.98.03,0,.07-.01.1-.02l24.48-4-24.48-4s-.07-.01-.1-.02c-5.54-.92-8.95-6.63-7.25-11.98,1.66-5.23,4.15-10.26,7.47-14.88l18.59-25.85Z"/>
  </g>
</svg>