<?xml version="1.0" encoding="UTF-8" standalone="no"?>
<!DOCTYPE svg PUBLIC "-//W3C//DTD SVG 1.1//EN" "http://www.w3.org/Graphics/SVG/1.1/DTD/svg11.dtd">
<svg width="100%" height="100%" viewBox="0 0 335 381" version="1.1" xmlns="http://www.w3.org/2000/svg" xmlns:xlink="http://www.w3.org/1999/xlink" xml:space="preserve" xmlns:serif="http://www.serif.com/" style="fill-rule:evenodd;clip-rule:evenodd;stroke-linejoin:round;stroke-miterlimit:2;">
    <g transform="matrix(1,0,0,1,-129.742156,-495.781198)">
        <path d="M415.571,710.249C414.989,710.639 413.834,710.435 413.197,710.363C411.244,710.142 409.488,709.477 407.649,708.815C403.926,707.476 400.222,706.086 396.53,704.664C389.091,701.797 381.704,698.801 374.303,695.838C367.093,692.952 359.868,690.104 352.648,687.242C349.008,685.799 345.392,684.247 341.712,682.91C339.161,681.983 335.967,681.782 334.244,684.381C333.534,685.453 333.475,686.63 333.681,687.864C334.023,689.916 334.412,691.959 334.745,694.014C335.379,697.922 335.935,701.843 336.424,705.773C337.376,713.435 338.069,721.128 338.578,728.832C339.637,744.84 339.899,760.886 340.045,776.924C340.126,785.77 340.17,794.616 340.286,803.462C340.344,807.885 340.42,812.307 340.527,816.728C340.578,818.832 340.636,820.935 340.702,823.038C340.74,824.275 340.906,825.575 340.598,826.79C340.544,827.003 340.314,827.691 340.057,828.255C337.163,820.279 334.496,812.289 332.165,804.121C329.696,795.473 328.36,786.611 326.975,777.738C324.163,759.719 320.132,742.024 314.14,724.78C313.786,723.761 313.426,722.743 313.06,721.728C312.739,720.836 312.681,719.933 312.421,719.034C312.149,718.094 311.497,717.382 311.104,716.496C310.638,715.442 310.357,714.303 309.867,713.259C309.276,712 308.1,711.416 306.723,711.519C304.626,711.675 303.484,713.411 302.206,714.853C296.369,721.442 290.74,728.213 285.234,735.081C274.148,748.909 263.742,763.255 252.803,777.195C241.653,791.406 230.84,805.857 218.785,819.326C217.615,820.633 216.47,821.98 215.223,823.215C214.845,823.589 214.285,823.922 213.944,824.321C213.856,824.157 213.748,823.969 213.718,823.889C213.072,822.126 213.413,819.844 213.754,818.048C214.158,815.918 215.281,813.868 216.086,811.857C219.44,803.481 222.712,795.103 226.596,786.952C230.408,778.948 234.547,771.107 238.581,763.214C242.764,755.029 246.883,746.812 251.031,738.609C259.415,722.029 267.798,705.449 276.182,688.869C277.187,686.882 278.191,684.895 279.196,682.908C280.026,681.267 281.025,679.674 280.092,677.844C279.427,676.537 278.236,675.944 276.881,675.574C275.294,675.141 273.872,674.871 272.249,675.573C270.325,676.404 268.543,677.777 266.763,678.871C264.704,680.137 262.644,681.402 260.584,682.668C256.638,685.094 252.692,687.519 248.745,689.945C233.076,699.576 217.407,709.206 201.738,718.837C198.333,720.929 194.928,723.022 191.523,725.115C190.747,724.631 190.295,723.836 190.121,722.964C200.43,713.814 211.061,705.027 222.014,696.658C238.116,684.354 255.5,673.511 270.351,659.643C272.217,657.899 274.295,656.149 275.69,653.983C277.111,651.777 277.148,649.294 276.618,646.795C275.903,643.42 274.971,640.068 273.962,636.742C273.654,635.25 273.341,633.76 273.042,632.266C270.854,621.341 268.799,610.389 266.873,599.414C264.987,588.661 263.249,577.919 262.16,567.051C261.909,564.55 261.64,562.049 261.398,559.546C261.264,558.147 261.133,556.748 261.009,555.348C260.898,554.113 260.622,552.726 260.755,551.488C260.853,550.572 261.169,549.617 261.588,548.801C261.79,548.41 262.014,548.004 262.305,547.673C262.401,547.564 262.541,547.373 262.677,547.312C262.83,547.186 262.834,547.185 262.688,547.308C262.487,547.422 262.553,547.515 262.886,547.585C263.392,548.32 264.025,548.883 264.463,549.704C264.882,550.489 265.256,551.297 265.679,552.08C267.986,556.36 270.378,560.592 272.511,564.962C274.399,568.831 276.288,572.699 278.176,576.568L290.959,602.758C293.172,607.294 295.386,611.83 297.6,616.366C300.06,621.406 302.52,626.446 304.98,631.486C305.518,632.59 306.173,633.699 306.449,634.872C306.668,635.802 307.01,636.63 307.746,637.278C309.256,638.608 311.577,638.51 313.297,637.673C315.407,636.647 316.622,634.26 317.95,632.434C319.517,630.278 321.09,628.125 322.668,625.976C325.942,621.519 329.237,617.078 332.555,612.654C339.131,603.886 345.794,595.182 352.542,586.544C354.165,584.467 355.695,582.387 357.664,580.623C358.513,579.862 359.376,579.115 360.316,578.467C361.176,577.874 362.669,576.755 363.772,577.14C364.68,577.456 365.002,578.717 365.223,579.566C365.563,580.877 365.256,582.184 365.009,583.493C364.606,585.63 364.091,587.837 363.368,589.89C362.448,592.498 361.239,595.038 360.183,597.593C356.513,606.469 352.843,615.346 349.173,624.223C346.533,630.608 343.893,636.994 341.253,643.379C340.225,645.865 339.197,648.351 338.17,650.837C337.795,651.744 337.434,652.54 337.616,653.536C337.771,654.387 337.756,655.444 338.11,656.239C338.983,658.192 341.846,659.087 343.593,660.051C345.918,661.334 348.239,662.623 350.557,663.919C369.611,674.574 388.416,685.676 406.955,697.204C409.117,698.549 411.368,699.818 413.458,701.273C415.499,702.694 416.394,705.945 416.327,708.354C416.263,708.97 416.149,709.862 415.571,710.249ZM462.773,722.716C462.753,722.699 462.726,722.689 462.703,722.674C462.653,722.624 462.603,722.574 462.532,722.526C433.457,702.715 403.657,683.972 373.184,666.386C364.71,661.496 356.179,656.708 347.606,651.994C354.207,636.033 360.823,620.08 367.429,604.121C374.028,588.18 380.894,572.313 387.129,556.225C388.666,552.259 390.08,548.239 391.167,544.124C391.649,542.296 392.07,540.451 392.405,538.59C392.684,537.043 393.144,535.307 392.395,533.824C391.123,531.307 387.478,531.292 385.356,532.633C383.866,533.575 382.767,535.371 381.644,536.709C380.234,538.391 378.827,540.075 377.423,541.762C366.586,554.785 355.943,567.97 345.501,581.312C334.262,595.672 323.28,610.227 312.513,624.943C303.848,607.182 295.204,589.409 286.499,571.667C282.1,562.699 277.791,553.678 273.331,544.757C268.845,535.783 264.589,526.657 260.56,517.47C258.517,512.811 256.56,508.114 254.728,503.368C253.473,500.118 252.749,495.448 248.311,495.8C246.838,495.917 245.35,496.6 244.362,497.712C242.939,499.313 243.551,501.382 243.751,503.315C244.285,508.493 244.848,513.669 245.44,518.841C247.779,539.283 250.564,559.674 253.798,579.994C257.407,602.663 261.601,625.231 266.321,647.695C241.714,666.124 217.663,685.293 194.262,705.232C182.425,715.318 170.751,725.595 159.247,736.059C153.371,741.404 147.54,746.797 141.753,752.239C138.95,754.874 136.158,757.521 133.376,760.179C131.582,761.892 128.856,763.771 130.024,766.6C132.266,772.028 138.26,767.597 141.342,765.702C146.907,762.282 152.472,758.862 158.036,755.441C168.918,748.753 179.799,742.065 190.68,735.378C213.811,721.161 236.941,706.945 260.071,692.728C261.987,691.551 263.903,690.373 265.819,689.195C253.984,712.628 242.238,736.111 230.25,759.467C224.114,771.421 217.894,783.348 212.634,795.723C207.411,808.011 202.612,820.442 197.079,832.599C194.239,838.841 191.38,845.074 188.519,851.305C187.062,854.477 185.604,857.649 184.147,860.822C183.471,862.295 182.795,863.768 182.119,865.241C181.495,866.603 180.644,868.001 180.249,869.453C179.921,870.659 180.222,871.481 180.648,872.578C181.012,873.512 181.062,874.493 181.757,875.315C183.182,877 185.73,877.015 187.594,876.144C190.107,874.968 191.65,871.885 193.237,869.744C195.227,867.059 197.221,864.377 199.218,861.697C215.505,839.84 232.009,818.146 248.736,796.624C265.694,774.804 282.878,753.159 300.289,731.698C301.543,730.152 302.8,728.609 304.056,727.065C312.171,771.174 323.813,814.6 338.994,856.807C339.999,859.601 341.019,862.389 342.053,865.172C342.92,867.503 343.538,870.508 344.995,872.542C347.086,875.461 352.393,874.394 353.693,871.203C354.442,869.361 353.468,866.387 353.244,864.496C352.893,861.537 352.579,858.574 352.298,855.607C351.758,849.922 351.339,844.227 351.01,838.527C349.665,815.206 349.865,791.839 349.573,768.492C349.259,743.386 348.303,718.243 344.428,693.407C360.563,699.825 376.674,706.316 392.886,712.536C410.029,719.114 427.501,725.107 445.625,728.319C448.138,728.764 450.66,729.158 453.189,729.502C455.299,729.79 457.759,730.419 459.888,730.17C463.61,729.736 466.117,725.388 462.773,722.716Z" style="fill-rule:nonzero;"/>
    </g>
</svg>
