<?xml version="1.0" encoding="UTF-8"?>
<svg id="Capa_2" data-name="Capa 2" xmlns="http://www.w3.org/2000/svg" viewBox="0 0 715.05 492.34">
  <defs>
    <style>
      .cls-1 {
        fill: #f6eee8;
      }

      .cls-2 {
        fill: #e1602f;
      }
    </style>
  </defs>
  <g id="_ÎÓÈ_1" data-name="—ÎÓÈ_1">
    <path class="cls-2" d="M715.05,246.17c-44.06-12.91-92.92-22.83-144.34-29.98,42.22-19.34,81.53-40.4,116.23-62.85-49.58-.92-103.74,3.36-159.68,11.78,21.29-20.35,40.91-40.88,58.38-61.25,8.56-10.11,16.93-20.51,24.7-31.78-13.3,3.23-26,7.35-38.5,11.74-35.26,12.63-72.35,29.07-109.85,48.46,5.8-14.96,11.06-29.77,15.64-44.27,6.69-22.29,12.72-44.48,15.83-67.91-19.25,13.73-36.03,29.45-52.58,45.8-16.69,16.97-33.27,35.67-49.43,55.66-3.35-20.83-7.51-40.97-12.45-60.04-5.77-20.97-12.05-41.49-21.45-61.54-9.4,20.06-15.68,40.57-21.45,61.54-5.1,19.64-9.36,40.4-12.76,61.9-16.64-20.7-33.72-40.04-50.92-57.52-16.55-16.36-33.34-32.08-52.58-45.8,3.1,23.44,9.13,45.63,15.83,67.92,4.46,14.13,9.56,28.55,15.19,43.12-36.75-18.89-73.06-34.94-107.6-47.32-12.5-4.39-25.2-8.5-38.5-11.74,7.77,11.27,16.14,21.66,24.7,31.78,17.61,20.52,37.38,41.22,58.86,61.72-40.87-6.31-80.4-10.47-117.34-12.18-14.72-.58-29.53-.84-44.63-.08,12.43,8.62,25.14,16.21,37.95,23.48,24.47,13.67,50.98,26.92,78.93,39.59-34.56,4.73-67.63,10.6-98.5,17.59-14.89,3.47-29.79,7.29-44.69,12.17,14.9,4.88,29.8,8.69,44.69,12.17,32.27,7.3,66.96,13.37,103.21,18.2-29.7,13.32-57.79,27.3-83.64,41.74-12.81,7.27-25.53,14.86-37.95,23.47,15.1.77,29.91.51,44.63-.07,35.89-1.66,74.19-5.61,113.8-11.62-30.41,29.5-57.56,59.83-80.03,90.18,47.23-13.21,97.23-33.78,147.2-59.45-14.84,38.56-25.97,77.12-32.11,114.19,36.56-27.88,71.6-63.42,103.79-103.29,7.16,43.13,18.32,84.22,33.93,120.65,15.39-35.91,26.45-76.34,33.62-118.78,31.78,39.13,66.31,73.98,102.3,101.42-6.19-37.44-17.5-76.41-32.58-115.38,50.73,26.21,101.53,47.23,149.47,60.63-22.36-30.19-49.35-60.37-79.56-89.72,54.71,8.08,107.63,12.14,156.16,11.24-35.98-23.28-76.91-45.06-120.89-64.98,53.15-7.18,103.63-17.31,149.01-30.61Z"/>
    <path class="cls-1" d="M278.88,261.82c.01.06.02.12.03.19l-.03-.19Z"/>
    <path class="cls-1" d="M478.64,194.8l-26.3,4.6c0,2.54-7.66-7.94-10.15-9.68-7-5.11-18.07-6.23-24.01-.2-3.58,3.56-2.34,10.77,2,13.29,2.15,1.36,4.85,2.39,8.09,3.08,19.99,3.5,45.58,3.66,58.03,27.1,28.25,57-33.23,85.59-72.55,66.03l1.53,8.73-26.3,4.6-8.17-46.74,26.3-4.6c1.62.17,5.76,5.72,11.17,9.38,8.01,6.22,27.38,7.01,26.78-6.98-3.37-18.16-47.44-3.79-66.26-31.64-7.42-9.27-12.04-29.94-8.47-42.56,8.59-33.97,50.46-40.97,75.37-27.79l-1.61-9.22,26.3-4.6,8.25,47.21Z"/>
    <path class="cls-1" d="M246.24,183.2l18.37-3.21-10.25,92.85,11.18,63.95-45.59,7.97-11.18-63.95-43.14-83.51,45.04-7.87,29.72,59.01.36-.06,5.49-65.17Z"/>
    <path class="cls-1" d="M328.4,233.31c-8.12,2.99-19.53,2.9-23.89-7.22-3.14-7.27-.11-24.18-11.69-20.69-8.36,2.52-10.48,9.25-10.05,15.21,2.25,31.29,24.27,30.87,52.73,18.99l3.77,9.59c-30.02,9.25-45.66,23.75-45.53,42.87.06,9.62,14.76,22.2,25.48,11.98,10.46-9.96-3.05-16.43-3.36-26.1-.11-3.45,6.24-9.52,12.9-13.36,7.26-4.18,27.47-11.28,31.97-10,5.17,1.47,10.04,34.17,4.78,45.76-5.15,11.36-16.19,17.91-27.51,22.33-52.27,20.4-78.34-33.65-34.94-66.49-19.34,2.87-34.24-25.77-29.28-46.43,10-49.91,75.46-52.38,84.93.3,2.53,14.1-21.26,19.8-30.3,23.24Z"/>
  </g>
</svg>